<svg width="817" height="774" viewBox="0 0 817 774" fill="none" xmlns="http://www.w3.org/2000/svg">
<path d="M424.731 391.464C424.731 381.799 416.896 373.964 407.231 373.964C397.566 373.964 389.731 381.799 389.731 391.464H424.731ZM407.231 732.273L394.811 744.602L407.231 757.112L419.65 744.602L407.231 732.273ZM503.399 635.403H520.899V592.936L490.98 623.073L503.399 635.403ZM311.062 635.403L323.482 623.073L293.562 592.936V635.403H311.062ZM766.102 321.097L774.753 336.309L788.073 328.735L782.324 314.531L766.102 321.097ZM46.0136 321.097L29.9285 314.203L23.7503 328.619L37.4058 336.334L46.0136 321.097ZM726.228 222.583L715.597 208.682L705.001 216.785L710.006 229.149L726.228 222.583ZM88.2337 222.583L104.319 229.477L109.605 217.142L99.064 208.837L88.2337 222.583ZM630.059 222.583L644.151 232.96L652.602 221.484L643.074 210.884L630.059 222.583ZM536.237 118.205L520.108 111.414L515.8 121.647L523.222 129.904L536.237 118.205ZM515.127 536.889L526.98 524.014L522.743 520.114L517.018 519.491L515.127 536.889ZM662.897 672.932H680.397V665.256L674.75 660.057L662.897 672.932ZM296.989 536.889L295.138 519.487L289.312 520.107L285.034 524.109L296.989 536.889ZM151.564 672.932L139.609 660.152L134.064 665.339V672.932H151.564ZM182.056 222.583L169.041 210.884L159.465 221.538L168.017 233.031L182.056 222.583ZM275.879 118.205L288.894 129.904L296.169 121.811L292.127 111.706L275.879 118.205ZM389.731 391.464V525.161H424.731V391.464H389.731ZM424.731 732.273V525.161H389.731V732.273H424.731ZM520.899 773.791V635.403H485.899V773.791H520.899ZM490.98 623.073L394.811 719.944L419.65 744.602L515.818 647.732L490.98 623.073ZM328.562 771.445V635.403H293.562V771.445H328.562ZM298.643 647.732L394.811 744.602L419.65 719.944L323.482 623.073L298.643 647.732ZM415.881 540.374L774.753 336.309L757.452 305.884L398.58 509.948L415.881 540.374ZM37.4058 336.334L398.623 540.398L415.838 509.924L54.6213 305.86L37.4058 336.334ZM782.324 314.531L742.449 216.017L710.006 229.149L749.881 327.663L782.324 314.531ZM736.858 236.484L816.607 175.5L795.346 147.697L715.597 208.682L736.858 236.484ZM-0.000185966 175.344L77.4035 236.329L99.064 208.837L21.6603 147.852L-0.000185966 175.344ZM72.1487 215.689L29.9285 314.203L62.0986 327.99L104.319 229.477L72.1487 215.689ZM615.968 212.206L393.139 514.784L421.322 535.538L644.151 232.96L615.968 212.206ZM567.02 1.81198e-05L520.108 111.414L552.365 124.996L599.277 13.582L567.02 1.81198e-05ZM523.222 129.904L617.045 234.282L643.074 210.884L549.252 106.507L523.222 129.904ZM405.34 542.559L513.236 554.286L517.018 519.491L409.122 507.764L405.34 542.559ZM503.274 549.764L651.044 685.806L674.75 660.057L526.98 524.014L503.274 549.764ZM645.397 672.932V771.445H680.397V672.932H645.397ZM298.84 554.291L409.082 542.563L405.379 507.759L295.138 519.487L298.84 554.291ZM169.064 771.445V672.932H134.064V771.445H169.064ZM163.519 685.711L308.944 549.669L285.034 524.109L139.609 660.152L163.519 685.711ZM168.017 233.031L393.192 535.609L421.27 514.713L196.095 212.135L168.017 233.031ZM215.065 13.2904L259.631 124.705L292.127 111.706L247.562 0.291679L215.065 13.2904ZM262.864 106.507L169.041 210.884L195.071 234.282L288.894 129.904L262.864 106.507Z" fill="#FF0000"/>
<path d="M476.517 465.532C476.517 498.823 457.972 531.501 437.188 557.253C427.02 569.852 416.812 580.181 409.145 587.354C408.732 587.74 408.326 588.116 407.93 588.482C407.63 588.189 407.324 587.891 407.015 587.585C399.706 580.36 389.967 569.956 380.263 557.277C360.463 531.409 342.636 498.449 342.636 464.873C342.636 431.383 360.391 399.289 380.102 374.325C389.77 362.08 399.473 352.103 406.756 345.195C407.119 344.851 407.475 344.516 407.825 344.188C408.306 344.62 408.798 345.066 409.303 345.526C416.955 352.51 427.143 362.586 437.29 374.926C458.02 400.137 476.517 432.296 476.517 465.532ZM396.787 598.186C396.787 598.185 396.788 598.184 396.79 598.183C396.791 598.182 396.794 598.179 396.795 598.179H396.796C396.791 598.183 396.788 598.185 396.787 598.186ZM396.993 335.019C396.993 335.018 396.99 335.016 396.988 335.015C396.986 335.013 396.985 335.012 396.984 335.012C396.985 335.012 396.989 335.014 396.994 335.018L396.993 335.019Z" fill="#FF0000" stroke="#FF0000" stroke-width="35"/>
</svg>
