<svg width="331" height="415" viewBox="0 0 331 415" fill="none" xmlns="http://www.w3.org/2000/svg">
<mask id="path-1-inside-1_950_7" fill="white">
<path fill-rule="evenodd" clip-rule="evenodd" d="M165.479 0L0 415H165.479H330.958L165.479 0Z"/>
</mask>
<path d="M0 415L-11.1465 410.555L-17.7038 427H0V415ZM165.479 0L176.626 -4.44463L165.479 -32.3987L154.333 -4.44463L165.479 0ZM330.958 415V427H348.662L342.105 410.555L330.958 415ZM11.1465 419.444L176.626 4.44463L154.333 -4.44463L-11.1465 410.555L11.1465 419.444ZM165.479 403H0V427H165.479V403ZM330.958 403H165.479V427H330.958V403ZM154.333 4.44463L319.812 419.444L342.105 410.555L176.626 -4.44463L154.333 4.44463Z" fill="#FF0000" mask="url(#path-1-inside-1_950_7)"/>
<mask id="path-3-inside-2_950_7" fill="white">
<path fill-rule="evenodd" clip-rule="evenodd" d="M228.014 200.793H218.798L165.479 67.0754L165.479 67.0752V67.0756L112.247 200.576H106.105H99.5586H88.948L91.4314 209.664L92.7859 217.453L94.5919 224.81L98.2697 235.628L26.7461 415L165.479 415H304.213L232.516 235.196L235.012 229.137L236.818 223.944L238.398 218.751L239.302 214.857L239.527 212.477V211.178V204.471L238.398 200.793H228.014Z"/>
</mask>
<path d="M218.798 200.793L207.652 205.237L210.665 212.793H218.798V200.793ZM165.479 67.0754L176.626 62.6308L176.542 62.4192L176.449 62.211L165.479 67.0754ZM165.479 67.0752L176.449 62.2108L153.479 67.0752H165.479ZM165.479 67.0756L176.626 71.5203L177.479 69.3799V67.0756H165.479ZM112.247 200.576V212.576H120.38L123.393 205.021L112.247 200.576ZM88.948 200.576V188.576H73.2289L77.3725 203.74L88.948 200.576ZM91.4314 209.664L103.254 207.608L103.157 207.049L103.007 206.501L91.4314 209.664ZM92.7859 217.453L80.9633 219.509L81.0338 219.915L81.132 220.314L92.7859 217.453ZM94.5919 224.81L82.938 227.671L83.0625 228.178L83.2305 228.672L94.5919 224.81ZM98.2697 235.628L109.416 240.073L111.057 235.959L109.631 231.766L98.2697 235.628ZM26.7461 415L15.5996 410.555L9.04233 427L26.7461 427L26.7461 415ZM165.479 415V403H165.479L165.479 415ZM304.213 415V427H321.916L315.359 410.555L304.213 415ZM232.516 235.196L221.421 230.625L219.568 235.122L221.37 239.64L232.516 235.196ZM235.012 229.137L246.108 233.708L246.236 233.397L246.346 233.079L235.012 229.137ZM236.818 223.944L248.152 227.886L248.23 227.663L248.298 227.438L236.818 223.944ZM238.398 218.751L249.879 222.245L249.997 221.857L250.088 221.462L238.398 218.751ZM239.302 214.857L250.991 217.567L251.172 216.787L251.248 215.99L239.302 214.857ZM239.527 212.477L251.474 213.61L251.527 213.044V212.477H239.527ZM239.527 204.471H251.527V202.671L250.999 200.95L239.527 204.471ZM238.398 200.793L249.87 197.272L247.268 188.793H238.398V200.793ZM218.798 212.793H228.014V188.793H218.798V212.793ZM154.333 71.52L207.652 205.237L229.945 196.348L176.626 62.6308L154.333 71.52ZM154.509 71.9396L154.51 71.9398L176.449 62.211L176.449 62.2108L154.509 71.9396ZM177.479 67.0756V67.0752H153.479V67.0756H177.479ZM123.393 205.021L176.626 71.5203L154.333 62.631L101.1 196.132L123.393 205.021ZM106.105 212.576H112.247V188.576H106.105V212.576ZM99.5586 212.576H106.105V188.576H99.5586V212.576ZM88.948 212.576H99.5586V188.576H88.948V212.576ZM103.007 206.501L100.524 197.413L77.3725 203.74L79.8558 212.827L103.007 206.501ZM104.608 215.397L103.254 207.608L79.6088 211.72L80.9633 219.509L104.608 215.397ZM106.246 221.949L104.44 214.592L81.132 220.314L82.938 227.671L106.246 221.949ZM109.631 231.766L105.953 220.948L83.2305 228.672L86.9082 239.491L109.631 231.766ZM37.8926 419.445L109.416 240.073L87.1231 231.184L15.5996 410.555L37.8926 419.445ZM165.479 403L26.7461 403L26.7461 427L165.479 427L165.479 403ZM304.213 403H165.479V427H304.213V403ZM221.37 239.64L293.066 419.445L315.359 410.555L243.663 230.751L221.37 239.64ZM223.917 224.566L221.421 230.625L243.612 239.766L246.108 233.708L223.917 224.566ZM225.484 220.002L223.678 225.195L246.346 233.079L248.152 227.886L225.484 220.002ZM226.918 215.258L225.338 220.451L248.298 227.438L249.879 222.245L226.918 215.258ZM227.612 212.146L226.709 216.041L250.088 221.462L250.991 217.567L227.612 212.146ZM227.581 211.343L227.355 213.724L251.248 215.99L251.474 213.61L227.581 211.343ZM227.527 211.178V212.477H251.527V211.178H227.527ZM227.527 204.471V211.178H251.527V204.471H227.527ZM226.927 204.313L228.055 207.991L250.999 200.95L249.87 197.272L226.927 204.313ZM228.014 212.793H238.398V188.793H228.014V212.793Z" fill="#FF0000" mask="url(#path-3-inside-2_950_7)"/>
<mask id="path-5-inside-3_950_7" fill="white">
<path fill-rule="evenodd" clip-rule="evenodd" d="M119.876 253.154L66.3721 415L165.028 415H267.069L211.475 253.804L197.085 261.809L191.441 264.189L186.249 265.92L181.056 267.219L174.283 268.517L169.994 268.949H168.636L168.64 268.733L164.576 268.949H159.384L150.353 267.651L141.549 264.838L134.776 262.026L126.875 258.131L119.876 253.154Z"/>
</mask>
<path d="M66.3721 415L54.9785 411.233L49.7663 427L66.3721 427L66.3721 415ZM119.876 253.154L126.83 243.375L113.584 233.956L108.483 249.388L119.876 253.154ZM165.028 415L165.028 427H165.028V415ZM267.069 415V427H283.901L278.413 411.088L267.069 415ZM211.475 253.804L222.819 249.891L218.151 236.357L205.641 243.317L211.475 253.804ZM197.085 261.809L201.748 272.866L202.349 272.613L202.919 272.296L197.085 261.809ZM191.441 264.189L195.236 275.573L195.676 275.427L196.104 275.246L191.441 264.189ZM186.249 265.92L189.159 277.562L189.606 277.45L190.044 277.304L186.249 265.92ZM181.056 267.219L183.315 279.004L183.643 278.941L183.967 278.86L181.056 267.219ZM174.283 268.517L175.488 280.456L176.019 280.403L176.543 280.302L174.283 268.517ZM169.994 268.949V280.949H170.598L171.199 280.889L169.994 268.949ZM168.636 268.949L156.638 268.727L156.411 280.949H168.636V268.949ZM168.64 268.733L180.637 268.955L180.876 256.064L168.001 256.75L168.64 268.733ZM164.576 268.949V280.949H164.895L165.214 280.932L164.576 268.949ZM159.384 268.949L157.676 280.827L158.525 280.949H159.384V268.949ZM150.353 267.651L146.701 279.082L147.655 279.387L148.646 279.529L150.353 267.651ZM141.549 264.838L136.946 275.921L137.414 276.115L137.897 276.269L141.549 264.838ZM134.776 262.026L129.471 272.789L129.817 272.96L130.173 273.108L134.776 262.026ZM126.875 258.131L119.921 267.91L120.705 268.469L121.569 268.894L126.875 258.131ZM77.7656 418.766L131.27 256.921L108.483 249.388L54.9785 411.233L77.7656 418.766ZM165.028 403L66.3721 403L66.3721 427L165.028 427L165.028 403ZM267.069 403H165.028V427H267.069V403ZM200.131 257.716L255.725 418.912L278.413 411.088L222.819 249.891L200.131 257.716ZM202.919 272.296L217.309 264.29L205.641 243.317L191.251 251.323L202.919 272.296ZM196.104 275.246L201.748 272.866L192.422 250.752L186.778 253.132L196.104 275.246ZM190.044 277.304L195.236 275.573L187.646 252.805L182.453 254.536L190.044 277.304ZM183.967 278.86L189.159 277.562L183.338 254.279L178.145 255.577L183.967 278.86ZM176.543 280.302L183.315 279.004L178.797 255.433L172.024 256.731L176.543 280.302ZM171.199 280.889L175.488 280.456L173.079 256.577L168.79 257.01L171.199 280.889ZM168.636 280.949H169.994V256.949H168.636V280.949ZM156.642 268.511L156.638 268.727L180.633 269.172L180.637 268.955L156.642 268.511ZM165.214 280.932L169.278 280.716L168.001 256.75L163.938 256.966L165.214 280.932ZM159.384 280.949H164.576V256.949H159.384V280.949ZM148.646 279.529L157.676 280.827L161.091 257.072L152.061 255.773L148.646 279.529ZM137.897 276.269L146.701 279.082L154.005 256.22L145.201 253.408L137.897 276.269ZM130.173 273.108L136.946 275.921L146.151 253.756L139.379 250.943L130.173 273.108ZM121.569 268.894L129.471 272.789L140.082 251.262L132.18 247.367L121.569 268.894ZM112.922 262.934L119.921 267.91L133.829 248.351L126.83 243.375L112.922 262.934Z" fill="#FF0000" mask="url(#path-5-inside-3_950_7)"/>
<path d="M216.047 408.999H116.301L146.537 273.409L155.898 274.481L156.045 274.499L156.191 274.508L162.846 274.941L163.181 274.963L163.516 274.947L172.784 274.515L173.096 274.5L173.405 274.453L176.222 274.024L180.921 273.382L181.111 273.356L181.3 273.317L186.201 272.324L216.047 408.999Z" stroke="#FF0000" stroke-width="12"/>
<mask id="path-8-inside-4_950_7" fill="white">
<path fill-rule="evenodd" clip-rule="evenodd" d="M88.4961 202.09C88.4961 201.657 88.5002 201.224 88.5083 200.792H242.45C242.458 201.224 242.462 201.657 242.462 202.09C242.462 242.003 207.995 274.358 165.479 274.358C122.962 274.358 88.4961 242.003 88.4961 202.09ZM166.188 264.523C199.429 264.523 226.376 241.486 226.376 213.068C212.241 213.068 106 213.068 106.007 213.068H106C106 241.486 132.947 264.523 166.188 264.523Z"/>
</mask>
<path fill-rule="evenodd" clip-rule="evenodd" d="M88.4961 202.09C88.4961 201.657 88.5002 201.224 88.5083 200.792H242.45C242.458 201.224 242.462 201.657 242.462 202.09C242.462 242.003 207.995 274.358 165.479 274.358C122.962 274.358 88.4961 242.003 88.4961 202.09ZM166.188 264.523C199.429 264.523 226.376 241.486 226.376 213.068C212.241 213.068 106 213.068 106.007 213.068H106C106 241.486 132.947 264.523 166.188 264.523Z" fill="#FF0000"/>
<path d="M88.5083 200.792V199.792H87.5269L87.5084 200.773L88.5083 200.792ZM242.45 200.792L243.449 200.773L243.431 199.792H242.45V200.792ZM226.376 213.068H227.376V212.068L226.376 212.068V213.068ZM106 213.068V212.068H105V213.068H106ZM87.5084 200.773C87.5002 201.211 87.4961 201.65 87.4961 202.09H89.4961C89.4961 201.663 89.5001 201.236 89.5081 200.811L87.5084 200.773ZM242.45 199.792H88.5083V201.792H242.45V199.792ZM243.462 202.09C243.462 201.65 243.458 201.211 243.449 200.773L241.45 200.811C241.458 201.236 241.462 201.663 241.462 202.09H243.462ZM165.479 275.358C208.487 275.358 243.462 242.614 243.462 202.09H241.462C241.462 241.392 207.504 273.358 165.479 273.358V275.358ZM87.4961 202.09C87.4961 242.614 122.471 275.358 165.479 275.358V273.358C123.454 273.358 89.4961 241.392 89.4961 202.09H87.4961ZM225.376 213.068C225.376 240.792 199.029 263.523 166.188 263.523V265.523C199.828 265.523 227.376 242.179 227.376 213.068H225.376ZM106.007 212.068C105.007 213.068 106.007 214.068 106.008 214.068C106.009 214.068 106.01 214.068 106.012 214.068C106.015 214.068 106.02 214.068 106.026 214.068C106.039 214.068 106.058 214.068 106.084 214.068C106.135 214.068 106.211 214.068 106.312 214.068C106.513 214.068 106.812 214.068 107.202 214.068C107.983 214.068 109.131 214.068 110.597 214.068C113.529 214.068 117.734 214.068 122.824 214.068C133.004 214.068 146.725 214.068 160.888 214.068C189.215 214.068 219.309 214.068 226.376 214.068V212.068C219.309 212.068 189.215 212.068 160.888 212.068C146.725 212.068 133.004 212.068 122.824 212.068C117.734 212.068 113.529 212.068 110.597 212.068C109.131 212.068 107.983 212.068 107.202 212.068C106.812 212.068 106.513 212.068 106.312 212.068C106.211 212.068 106.135 212.068 106.084 212.068C106.058 212.068 106.039 212.068 106.026 212.068C106.02 212.068 106.015 212.068 106.012 212.068C106.01 212.068 106.009 212.068 106.008 212.068C106.007 212.068 107.007 213.068 106.007 214.068V212.068ZM106 214.068H106.007V212.068H106V214.068ZM166.188 263.523C133.346 263.523 107 240.792 107 213.068H105C105 242.179 132.547 265.523 166.188 265.523V263.523Z" fill="#FF0000" mask="url(#path-8-inside-4_950_7)"/>
<path d="M178.995 204.863H151.512L165.253 240.933L178.995 204.863Z" fill="#FF0000" stroke="#FF0000"/>
<path d="M165.705 270.247L165.705 411.537" stroke="#FF0000" stroke-width="12"/>
<path d="M165 12L165 207" stroke="#FF0000" stroke-width="12"/>
</svg>
