<svg width="260" height="403" viewBox="0 0 260 403" fill="none" xmlns="http://www.w3.org/2000/svg">
<path d="M246.316 167.309L252.027 251.446L217.502 237.924L173.631 215.638L145.855 202.366L187 183.586L246.316 167.309Z" fill="#FF0000"/>
<path d="M246.316 167.309L252.027 251.446M246.316 167.309L187 183.586M246.316 167.309C246.316 167.309 253.783 122.12 246.316 94.6912C237.381 61.8659 228.074 38.986 198.033 21.3221C183.988 13.064 174.646 5.91014 158.315 7.80011C138.571 10.0851 131.634 24.1509 118.857 38.8505C103.971 55.9769 96.0892 72.4153 97.9698 94.6912C99.0855 107.907 102.865 124.773 121.073 132.948C145.614 143.966 170.915 146.971 181.298 143.715C193.097 140.016 204.327 125.221 200.888 113.722C195.99 97.3462 172.906 89.3351 158.315 98.9481M252.027 251.446L217.502 237.924M252.027 251.446C252.027 251.446 255.63 297.683 242.942 323.062C227.365 354.218 207.524 374.815 173.631 386.109C141.227 396.907 118.857 402.886 85.8895 378.402M217.502 237.924L173.631 215.638L145.855 202.366M9.44942 137.956C3.99807 171.51 9.44945 209.015 32.553 220.59C55.6565 232.166 69.0405 229.111 91.6005 224.652C114.16 220.193 145.855 202.366 145.855 202.366L187 183.586M217.502 237.924C217.502 237.924 213.719 285.219 198.033 303.53C176.121 329.108 147.869 338.164 114.444 330.324M173.631 215.638C173.631 215.638 161.563 260.895 137.548 273.481C114.922 285.34 94.2376 285.34 71.612 273.481M187 183.586C187 183.586 172.75 171.421 152.224 178.021C100.825 194.548 85.8895 180.275 59.1517 160.298" stroke="#FF0000" stroke-width="15"/>
</svg>
