<svg width="265" height="458" viewBox="0 0 265 458" fill="none" xmlns="http://www.w3.org/2000/svg">
<circle cx="132.748" cy="232.937" r="23.4004" fill="#FF0000"/>
<path fill-rule="evenodd" clip-rule="evenodd" d="M92.0078 0.491981L96.8227 147.213L96.8616 148.401L97.2661 149.518L104.926 170.69C109.477 168.722 114.296 167.257 119.313 166.366L111.776 145.533L107 0L92.0078 0.491981ZM145.214 166.964C150.168 168.085 154.909 169.769 159.364 171.947L166.975 149.362L167.367 148.196V146.967V0.245991H152.367V145.737L145.214 166.964ZM169.203 177.886C173.258 180.85 176.958 184.272 180.226 188.075L197.563 170.716L199.568 168.708L199.742 165.876L204.607 86.6529L189.635 85.7335L184.944 162.124L169.203 177.886ZM185.67 195.383C188.362 199.578 190.586 204.102 192.269 208.881L213.576 199.928L216.334 198.769L217.537 196.031L244.589 134.481L230.857 128.445L205.008 187.258L185.67 195.383ZM193.599 247.946C192.245 252.843 190.333 257.509 187.936 261.871L190.727 263.225L203.409 312.34L217.933 308.59L204.383 256.116L203.516 252.757L200.395 251.243L193.599 247.946ZM178.821 274.571C175.433 278.265 171.625 281.566 167.473 284.4L171.013 288.834L184.897 359.478L199.615 356.585L185.378 284.142L185.024 282.342L183.88 280.908L178.821 274.571ZM159.334 289.131C154.874 291.308 150.13 292.991 145.171 294.109L152.48 317.969L163.777 429.643L178.701 428.134L167.329 315.724L167.255 314.989L167.038 314.282L159.334 289.131ZM138.344 295.269C135.863 295.556 133.339 295.703 130.781 295.703C128.266 295.703 125.784 295.561 123.344 295.283V457.975H138.344V295.269ZM118.779 294.6C113.778 293.669 108.978 292.167 104.449 290.165L97.1404 314.306L96.9488 314.939L96.8709 315.595L83.5305 428.005L98.426 429.772L111.688 318.02L118.779 294.6ZM94.2149 284.486C90.0421 281.653 86.2154 278.348 82.8111 274.648L78.1023 281.219L77.245 282.416L76.9035 283.847L59.6189 356.291L74.2093 359.772L91.1523 288.76L94.2149 284.486ZM73.7561 262.108C71.3363 257.747 69.4022 253.079 68.0268 248.178L58.4232 253.187L55.5948 254.663L54.6958 257.723L39.8245 308.351L54.2165 312.579L68.1887 265.012L73.7561 262.108ZM69.7509 207.62C71.5357 202.868 73.8597 198.38 76.6482 194.23L59.0058 187.086L30.8221 128.224L17.293 134.702L46.732 196.185L47.9873 198.807L50.6815 199.898L69.7509 207.62ZM82.6229 186.621C86.0068 182.912 89.8134 179.595 93.9666 176.747L79.235 162.103L74.3991 85.7193L59.4291 86.6671L64.4447 165.89L64.6245 168.729L66.6422 170.735L82.6229 186.621Z" fill="#FF0000"/>
<path d="M73.2637 248.027C73.2637 261.182 95.1265 291.766 131.655 291.766C168.184 291.766 186.329 261.182 186.329 248.027" stroke="#FF0000" stroke-width="15"/>
<path d="M71.5137 208.444C74.5754 200.134 94.9074 170.173 131.436 170.173C167.965 170.173 188.734 197.291 194.202 208.444" stroke="#FF0000" stroke-width="15"/>
<path d="M264.184 233.156L219.57 233.156" stroke="#FF0000" stroke-width="15"/>
<path d="M44.6143 233.156L0.000450492 233.156" stroke="#FF0000" stroke-width="15"/>
</svg>
