<svg width="524" height="908" viewBox="0 0 524 908" fill="none" xmlns="http://www.w3.org/2000/svg">
<circle cx="263.136" cy="461.821" r="46.3848" fill="#FF0000"/>
<path fill-rule="evenodd" clip-rule="evenodd" d="M179.746 1.14796L189.29 291.981L189.381 294.753L190.325 297.361L205.573 339.506C216.083 334.701 227.35 331.263 239.145 329.421L224.18 288.061L214.727 0L179.746 1.14796ZM285.253 330.49C296.907 332.873 307.989 336.825 318.269 342.116L333.474 296.995L334.39 294.276V291.407V0.573978H299.39V288.538L285.253 330.49ZM333.225 351.143C342.84 357.873 351.497 365.879 358.949 374.916L393.475 340.344L398.154 335.659L398.56 329.051L408.204 172.013L373.269 169.868L364.031 320.297L333.225 351.143ZM366.569 385.14C373.05 394.795 378.263 405.372 381.969 416.633L424.374 398.816L430.808 396.113L433.616 389.724L487.238 267.717L455.196 253.634L404.382 369.252L366.569 385.14ZM384.443 488.978C381.512 500.507 377.031 511.416 371.235 521.472L375.816 523.694L400.65 619.873L434.539 611.122L407.681 507.107L405.657 499.269L398.375 495.737L384.443 488.978ZM356.245 542.363C348.513 551.149 339.606 558.876 329.769 565.298L336.525 573.759L363.921 713.159L398.264 706.41L370.043 562.811L369.217 558.611L366.547 555.267L356.245 542.363ZM318.221 572.013C307.931 577.304 296.839 581.253 285.174 583.631L299.653 630.896L322.021 852.001L356.844 848.478L334.302 625.657L334.128 623.942L333.623 622.293L318.221 572.013ZM276.86 585.044C271.097 585.83 265.213 586.236 259.235 586.236C253.343 586.236 247.543 585.842 241.86 585.078V907.895H276.86V585.044ZM238.057 584.509C226.301 582.57 215.08 579.044 204.622 574.158L190.032 622.348L189.585 623.824L189.403 625.356L162.959 848.177L197.715 852.301L223.977 631.013L238.057 584.509ZM188.948 565.459C179.064 559.038 170.113 551.301 162.343 542.498L152.674 555.992L150.673 558.784L149.876 562.124L115.614 705.723L149.659 713.846L183.124 573.587L188.948 565.459ZM147.501 521.933C141.651 511.88 137.119 500.966 134.141 489.427L114.588 499.626L107.988 503.068L105.891 510.21L76.4125 610.565L109.994 620.429L137.374 527.215L147.501 521.933ZM137.359 414.112C141.305 402.91 146.753 392.416 153.459 382.871L118.895 368.874L63.4693 253.118L31.9014 268.233L90.2561 390.107L93.1851 396.224L99.4715 398.77L137.359 414.112ZM162.018 371.977C169.743 363.156 178.65 355.396 188.491 348.943L159.624 320.247L150.102 169.835L115.172 172.046L125.114 329.084L125.533 335.709L130.241 340.389L162.018 371.977Z" fill="#FF0000"/>
<path d="M145.224 491.732C145.224 517.807 188.561 578.433 260.969 578.433C333.377 578.433 369.344 517.807 369.344 491.732" stroke="#FF0000" stroke-width="35"/>
<path d="M141.755 413.269C147.824 396.795 188.126 337.406 260.535 337.406C332.943 337.406 374.112 391.16 384.95 413.269" stroke="#FF0000" stroke-width="35"/>
<path d="M523.671 462.254L435.236 462.254" stroke="#FF0000" stroke-width="35"/>
<path d="M88.4346 462.254L3.69549e-05 462.254" stroke="#FF0000" stroke-width="35"/>
</svg>
