<svg width="721" height="712" viewBox="0 0 721 712" fill="none" xmlns="http://www.w3.org/2000/svg">
<path d="M491.374 226.685L327.877 264.719L396.628 295.208L504.799 312.895L610.281 379.454L651.898 498.171V623.066L703.5 549.338V438.406L651.898 312.895L491.374 226.685Z" fill="#FF0000"/>
<path d="M327.877 421.291L213.307 260.282L327.877 264.719L396.628 295.208L327.877 421.291Z" fill="#FF0000"/>
<path d="M359.456 658.217L345.359 668.586L366.098 696.78L380.195 686.411L369.826 672.314L359.456 658.217ZM464.62 602.585L474.989 616.682L470.97 586.278L464.62 602.585ZM300.84 689.641L318.168 692.091L323.066 657.435L305.739 654.986L303.289 672.314L300.84 689.641ZM186.692 655.832L176.154 641.861L184.243 673.16L186.692 655.832ZM491.374 226.685L499.654 211.268L487.409 209.641L491.374 226.685ZM651.898 312.895L668.083 306.241L660.178 297.478L651.898 312.895ZM169.192 207.035V224.535H204.192V207.035H186.692H169.192ZM651.898 498.171H669.398L668.413 492.382L651.898 498.171ZM651.898 623.066H634.398L666.235 633.1L651.898 623.066ZM213.307 260.282L213.984 242.795L200.93 247.91L213.307 260.282ZM0 694.5V712H35V694.5H17.5H0ZM515.181 110.683V128.183H550.181V110.683H532.681H515.181ZM532.681 17.5H550.181L532.681 0V17.5ZM412.916 17.5V0L398.49 7.59313L412.916 17.5ZM703.5 438.406H721L719.685 431.752L703.5 438.406ZM610.281 379.454L626.795 373.665L619.62 364.654L610.281 379.454ZM204.192 70.7472V53.2472H169.192V70.7472H186.692H204.192ZM703.5 549.338L717.837 559.373L721 549.338H703.5ZM504.799 312.895L514.138 298.095L507.623 295.624L504.799 312.895ZM99.8783 373.749L87.5018 361.377C85.771 363.108 84.4227 365.184 83.544 367.469L99.8783 373.749ZM17.5 588.006L1.16574 581.725C0.395159 583.73 0 585.858 0 588.006H17.5ZM327.877 141.329H310.377V264.719H327.877H345.377V141.329H327.877ZM369.826 672.314L380.195 686.411L474.989 616.682L464.62 602.585L454.25 588.488L359.456 658.217L369.826 672.314ZM464.62 602.585L470.97 586.278L334.227 533.031L327.877 549.338L321.527 565.645L458.27 618.893L464.62 602.585ZM303.289 672.314L305.739 654.986L189.142 638.505L186.692 655.832L184.243 673.16L300.84 689.641L303.289 672.314ZM186.692 655.832L197.231 669.804L338.415 563.309L327.877 549.338L317.339 535.367L176.154 641.861L186.692 655.832ZM491.374 226.685L483.094 242.103L643.618 328.312L651.898 312.895L660.178 297.478L499.654 211.268L491.374 226.685ZM186.692 207.035H204.192V141.329H186.692H169.192V207.035H186.692ZM327.877 264.719L320.783 280.717L389.534 311.206L396.628 295.208L403.722 279.211L334.971 248.722L327.877 264.719ZM651.898 498.171H634.398V623.066H651.898H669.398V498.171H651.898ZM213.307 260.282L212.63 277.769L327.2 282.206L327.877 264.719L328.554 247.232L213.984 242.795L213.307 260.282ZM532.681 110.683H550.181V17.5H532.681H515.181V110.683H532.681ZM532.681 17.5V0H412.916V17.5V35H532.681V17.5ZM651.898 312.895L635.713 319.55L687.315 445.061L703.5 438.406L719.685 431.752L668.083 306.241L651.898 312.895ZM610.281 379.454L593.766 385.244L635.383 503.96L651.898 498.171L668.413 492.382L626.795 373.665L610.281 379.454ZM412.916 17.5L398.49 7.59313L313.451 131.422L327.877 141.329L342.303 151.236L427.342 27.4069L412.916 17.5ZM186.692 141.329V158.829H327.877V141.329V123.829H186.692V141.329ZM186.692 141.329H204.192V70.7472H186.692H169.192V141.329H186.692ZM327.877 421.291L342.135 411.145L227.566 250.136L213.307 260.282L199.048 270.428L313.618 431.437L327.877 421.291ZM396.628 295.208L381.264 286.83L312.513 412.913L327.877 421.291L343.241 429.669L411.992 303.586L396.628 295.208ZM327.877 549.338H345.377V421.291H327.877H310.377V549.338H327.877ZM327.877 421.291H345.377V264.719H327.877H310.377V421.291H327.877ZM703.5 438.406H686V549.338H703.5H721V438.406H703.5ZM703.5 549.338L689.163 539.303L637.561 613.031L651.898 623.066L666.235 633.1L717.837 559.373L703.5 549.338ZM396.628 295.208L393.804 312.479L501.975 330.166L504.799 312.895L507.623 295.624L399.452 277.938L396.628 295.208ZM504.799 312.895L495.46 327.695L600.942 394.254L610.281 379.454L619.62 364.654L514.138 298.095L504.799 312.895ZM327.877 264.719L331.842 281.764L495.339 243.73L491.374 226.685L487.409 209.641L323.912 247.674L327.877 264.719ZM99.8783 373.749L112.255 386.121L225.683 272.654L213.307 260.282L200.93 247.91L87.5018 361.377L99.8783 373.749ZM17.5 694.5H35V588.006H17.5H0V694.5H17.5ZM17.5 588.006L33.8343 594.286L116.213 380.029L99.8783 373.749L83.544 367.469L1.16574 581.725L17.5 588.006Z" fill="#FF0000"/>
</svg>
