<svg width="665" height="1002" viewBox="0 0 665 1002" fill="none" xmlns="http://www.w3.org/2000/svg">
<path d="M332.338 123.188C337.436 129.328 344.049 137.344 351.728 146.775C370.172 169.43 394.736 200.199 419.276 232.723C443.858 265.301 468.227 299.391 486.385 328.743C495.474 343.436 502.827 356.654 507.859 367.719C513.124 379.295 515 386.731 515 390.5C515 494.098 432.975 577.5 332.5 577.5C232.025 577.5 150 494.098 150 390.5C150 385.631 152.041 377.379 157.23 365.508C162.252 354.021 169.587 340.546 178.654 325.728C196.775 296.116 221.104 262.291 245.665 230.175C270.183 198.115 294.728 168.023 313.159 145.929C320.735 136.847 327.272 129.127 332.338 123.188Z" stroke="#FF0000" stroke-width="30"/>
<path d="M331.367 330C352.139 330 372.531 339.748 388.616 350.687C393.995 354.344 398.709 358.011 402.58 361.249C398.717 364.301 394.037 367.743 388.711 371.178C372.531 381.613 351.928 391 330.945 391C310.023 391 289.988 381.657 274.413 371.295C269.234 367.849 264.708 364.396 260.992 361.342C264.806 358.066 269.487 354.335 274.858 350.613C290.582 339.719 310.633 330 331.367 330ZM250.127 371.626C250.126 371.627 250.123 371.629 250.122 371.631C250.12 371.634 250.118 371.636 250.116 371.638L250.115 371.639C250.117 371.637 250.12 371.631 250.126 371.625C250.127 371.626 250.127 371.626 250.127 371.626Z" stroke="#FF0000" stroke-width="30"/>
<path d="M332 320L332 1002" stroke="#FF0000" stroke-width="35"/>
<circle cx="640.5" cy="379.5" r="24.5" fill="#FF0000"/>
<circle cx="332.5" cy="24.5" r="24.5" fill="#FF0000"/>
<circle cx="24.5" cy="379.5" r="24.5" fill="#FF0000"/>
</svg>
