<svg width="332" height="499" viewBox="0 0 332 499" fill="none" xmlns="http://www.w3.org/2000/svg">
<path d="M165.506 61.3945C168.041 64.449 171.327 68.4311 175.14 73.1143C184.325 84.396 196.558 99.7187 208.778 115.915C221.02 132.139 233.154 149.115 242.196 163.731C246.722 171.048 250.384 177.629 252.89 183.138C255.511 188.902 256.443 192.6 256.443 194.471C256.443 246.047 215.607 287.567 165.587 287.567C115.567 287.567 74.7314 246.047 74.7314 194.471C74.7315 192.052 75.7461 187.948 78.3301 182.037C80.8303 176.318 84.4818 169.608 88.9971 162.229C98.0203 147.484 110.136 130.64 122.367 114.646C134.577 98.6813 146.8 83.6952 155.979 72.6924C159.74 68.1837 162.986 64.3489 165.506 61.3945Z" stroke="#FF0000" stroke-width="15"/>
<path d="M165.022 164.371C175.358 164.371 185.507 169.222 193.516 174.668C196.179 176.479 198.513 178.297 200.435 179.902C198.517 181.415 196.199 183.122 193.562 184.822C185.507 190.017 175.253 194.688 164.812 194.688C154.402 194.688 144.43 190.039 136.676 184.881C134.111 183.174 131.869 181.463 130.024 179.948C131.918 178.323 134.238 176.474 136.898 174.631C144.727 169.207 154.706 164.371 165.022 164.371ZM124.587 185.091L124.585 185.093C124.584 185.094 124.583 185.096 124.582 185.097H124.581C124.582 185.096 124.583 185.093 124.586 185.09C124.587 185.091 124.587 185.091 124.587 185.091Z" stroke="#FF0000" stroke-width="15"/>
<path d="M165.338 159.361L165.338 499" stroke="#FF0000" stroke-width="15"/>
<circle cx="318.97" cy="188.992" r="7.5" fill="#FF0000" stroke="#FF0000" stroke-width="9.40192"/>
<circle cx="165.587" cy="12.201" r="7.5" fill="#FF0000" stroke="#FF0000" stroke-width="9.40192"/>
<circle cx="12.201" cy="188.992" r="7.5" fill="#FF0000" stroke="#FF0000" stroke-width="9.40192"/>
</svg>
