<svg width="181" height="435" viewBox="0 0 181 435" fill="none" xmlns="http://www.w3.org/2000/svg">
<path d="M7.5 137.765C7.5 151.736 42.8463 181.896 90.831 181.896C139.64 181.896 173.45 151.736 173.45 137.765M28.646 234.761C28.646 242.91 54.8864 260.503 90.5094 260.503C126.744 260.503 151.844 242.91 151.844 234.761M46.1144 314.288C46.1144 320.4 65.0114 333.595 90.6653 333.595C116.76 333.595 134.836 320.4 134.836 314.288M90.2325 434.498V388.069C90.2325 388.069 59.646 360.027 90.2315 325.32C120.817 290.614 103.806 261.632 90.2325 251.08C76.6591 240.527 61.7443 202.812 90.23 162.359C124.669 113.451 140.583 79.6135 90.2327 12.498C39.8824 79.6135 55.9945 113.451 90.4335 162.359C118.919 202.812 104.004 240.527 90.431 251.08C76.8577 261.632 59.8464 290.614 90.4319 325.32C121.017 360.027 90.431 388.069 90.431 388.069V434.498" stroke="#FF0000" stroke-width="15"/>
</svg>
