<svg width="396" height="948" viewBox="0 0 396 948" fill="none" xmlns="http://www.w3.org/2000/svg">
<path d="M17.5 301.662C17.5 332.053 94.3908 397.662 198.774 397.662C304.95 397.662 378.5 332.053 378.5 301.662M63.5 512.662C63.5 530.39 120.582 568.662 198.075 568.662C276.898 568.662 331.5 530.39 331.5 512.662M101.5 685.662C101.5 698.958 142.608 727.662 198.414 727.662C255.178 727.662 294.5 698.958 294.5 685.662M197.473 947.162V846.162C197.473 846.162 130.936 785.162 197.47 709.662C264.005 634.162 226.999 571.117 197.473 548.162C167.946 525.207 135.501 443.162 197.467 355.162C272.384 248.77 307.003 175.162 197.473 29.1616C87.9433 175.162 122.993 248.77 197.91 355.162C259.876 443.162 227.431 525.207 197.904 548.162C168.378 571.117 131.372 634.162 197.906 709.662C264.441 785.162 197.904 846.162 197.904 846.162V947.162" stroke="#FF0000" stroke-width="35"/>
</svg>
