<svg width="791" height="785" viewBox="0 0 791 785" fill="none" xmlns="http://www.w3.org/2000/svg">
<path d="M413.142 236.25C413.142 226.585 405.307 218.75 395.642 218.75C385.977 218.75 378.142 226.585 378.142 236.25H413.142ZM332.767 767L316.246 761.229L308.117 784.5H332.767V767ZM456.267 767V784.5H480.627L472.851 761.414L456.267 767ZM575.293 356.222L559.587 348.505V348.505L575.293 356.222ZM321.133 250.946L311.402 236.401L321.133 250.946ZM215.948 356.068L200.373 364.049V364.049L215.948 356.068ZM395.642 430.5C390.2 447.132 390.204 447.134 390.209 447.135C390.211 447.136 390.216 447.138 390.22 447.139C390.229 447.142 390.24 447.145 390.253 447.15C390.279 447.158 390.313 447.169 390.355 447.183C390.44 447.21 390.558 447.248 390.708 447.296C391.009 447.392 391.438 447.528 391.989 447.7C393.091 448.044 394.683 448.532 396.711 449.13C400.764 450.326 406.57 451.967 413.699 453.785C427.921 457.412 447.58 461.788 469.185 464.716C490.7 467.632 514.718 469.193 537.482 466.896C560.039 464.62 583.075 458.388 600.991 444.231L579.292 416.769C568.734 425.112 553.22 430.13 533.968 432.073C514.925 433.994 493.877 432.743 473.886 430.033C453.985 427.336 435.697 423.275 422.348 419.871C415.692 418.173 410.307 416.65 406.616 415.561C404.771 415.017 403.352 414.582 402.412 414.288C401.941 414.142 401.591 414.031 401.368 413.959C401.256 413.923 401.176 413.897 401.128 413.882C401.104 413.874 401.088 413.869 401.081 413.867C401.077 413.865 401.075 413.865 401.076 413.865C401.076 413.865 401.078 413.866 401.078 413.866C401.08 413.866 401.083 413.867 395.642 430.5ZM600.991 444.231C611.549 435.888 627.063 430.87 646.315 428.927C665.358 427.006 686.406 428.257 706.398 430.966C726.298 433.663 744.587 437.725 757.935 441.129C764.591 442.827 769.976 444.35 773.668 445.439C775.512 445.983 776.931 446.418 777.872 446.712C778.342 446.858 778.692 446.969 778.916 447.041C779.027 447.077 779.108 447.103 779.155 447.118C779.179 447.126 779.195 447.131 779.202 447.133C779.206 447.134 779.208 447.135 779.208 447.135C779.207 447.135 779.206 447.134 779.205 447.134C779.203 447.133 779.2 447.132 784.642 430.5C790.083 413.867 790.079 413.866 790.075 413.865C790.072 413.864 790.067 413.862 790.063 413.861C790.054 413.858 790.044 413.855 790.031 413.85C790.005 413.842 789.97 413.831 789.928 413.817C789.843 413.79 789.725 413.752 789.575 413.704C789.275 413.608 788.846 413.471 788.294 413.299C787.192 412.956 785.6 412.468 783.572 411.87C779.519 410.674 773.713 409.033 766.584 407.215C752.362 403.588 732.703 399.211 711.098 396.283C689.583 393.368 665.566 391.807 642.801 394.104C620.245 396.38 597.209 402.612 579.292 416.769L600.991 444.231ZM6.6416 430.5C13.2936 446.686 13.289 446.688 13.2849 446.69C13.2841 446.69 13.2804 446.692 13.2788 446.692C13.2755 446.694 13.2738 446.694 13.2738 446.694C13.2738 446.694 13.2803 446.692 13.2933 446.687C13.3192 446.676 13.3711 446.655 13.4483 446.624C13.6027 446.563 13.8585 446.461 14.2115 446.325C14.9178 446.051 16.0124 445.636 17.463 445.112C20.3657 444.062 24.6833 442.579 30.1574 440.919C41.1299 437.592 56.6167 433.595 74.5791 430.936C110.928 425.556 155.194 425.976 192.954 445.966L209.33 415.034C162.089 390.024 109.105 390.444 69.4541 396.314C49.4165 399.28 32.2158 403.721 20.0008 407.425C13.8812 409.281 8.97997 410.961 5.56242 412.197C3.85279 412.815 2.51186 413.323 1.57266 413.686C1.10297 413.868 0.733497 414.014 0.468353 414.12C0.335772 414.173 0.229249 414.216 0.149299 414.248C0.109323 414.265 0.0759869 414.278 0.0493555 414.289C0.0360398 414.294 0.0243998 414.299 0.0144434 414.303C0.00946856 414.305 0.00325871 414.308 0.000772953 414.309C-0.00500536 414.311 -0.0103664 414.313 6.6416 430.5ZM192.954 445.966C240.194 470.976 293.178 470.556 332.829 464.686C352.867 461.72 370.067 457.279 382.282 453.575C388.402 451.719 393.303 450.039 396.721 448.803C398.43 448.185 399.771 447.677 400.711 447.313C401.18 447.132 401.55 446.986 401.815 446.88C401.947 446.827 402.054 446.784 402.134 446.751C402.174 446.735 402.207 446.722 402.234 446.711C402.247 446.705 402.259 446.701 402.269 446.697C402.274 446.695 402.28 446.692 402.282 446.691C402.288 446.689 402.294 446.686 395.642 430.5C388.99 414.313 388.994 414.312 388.998 414.31C388.999 414.31 389.003 414.308 389.004 414.307C389.008 414.306 389.009 414.305 389.009 414.305C389.009 414.305 389.003 414.308 388.99 414.313C388.964 414.324 388.912 414.345 388.835 414.376C388.681 414.437 388.425 414.538 388.072 414.675C387.365 414.949 386.271 415.364 384.82 415.888C381.917 416.938 377.6 418.421 372.126 420.081C361.153 423.408 345.667 427.405 327.704 430.064C291.355 435.444 247.089 435.024 209.33 415.034L192.954 445.966ZM36.3417 579.057C49.6549 590.415 49.6502 590.421 49.6456 590.426C49.6444 590.428 49.6401 590.433 49.6377 590.435C49.6329 590.441 49.6291 590.446 49.6262 590.449C49.6204 590.456 49.6183 590.458 49.6201 590.456C49.6235 590.452 49.6421 590.431 49.6757 590.392C49.7429 590.316 49.8701 590.172 50.0571 589.966C50.4311 589.552 51.0435 588.889 51.8915 588.01C53.5882 586.251 56.2223 583.637 59.771 580.45C66.8768 574.069 77.5944 565.442 91.7416 556.79C120.005 539.504 161.786 522.207 215.969 522.279L216.015 487.279C154.049 487.197 106.005 507.04 73.4804 526.931C57.2336 536.868 44.8166 546.839 36.3863 554.409C32.1669 558.198 28.9325 561.398 26.7028 563.709C25.5875 564.865 24.7222 565.8 24.1093 566.477C23.8029 566.816 23.5594 567.09 23.3792 567.295C23.289 567.398 23.2147 567.483 23.1563 567.55C23.1271 567.584 23.1018 567.613 23.0805 567.638C23.0698 567.651 23.0602 567.662 23.0515 567.672C23.0472 567.677 23.0414 567.684 23.0393 567.686C23.0337 567.693 23.0285 567.699 36.3417 579.057ZM215.969 522.279C277.936 522.361 325.98 502.518 358.504 482.626C374.751 472.69 387.168 462.719 395.598 455.149C399.818 451.36 403.052 448.16 405.282 445.849C406.397 444.693 407.262 443.758 407.875 443.081C408.182 442.742 408.425 442.468 408.605 442.263C408.696 442.16 408.77 442.075 408.828 442.007C408.858 441.973 408.883 441.944 408.904 441.919C408.915 441.907 408.924 441.896 408.933 441.886C408.937 441.88 408.943 441.874 408.945 441.871C408.951 441.865 408.956 441.859 395.643 430.5C382.33 419.142 382.334 419.137 382.339 419.131C382.34 419.13 382.344 419.125 382.347 419.122C382.352 419.117 382.356 419.112 382.358 419.109C382.364 419.102 382.366 419.1 382.365 419.102C382.361 419.106 382.342 419.127 382.309 419.165C382.242 419.242 382.114 419.385 381.927 419.592C381.553 420.005 380.941 420.669 380.093 421.548C378.396 423.307 375.762 425.921 372.214 429.107C365.108 435.488 354.39 444.116 340.243 452.768C311.979 470.054 270.198 487.35 216.015 487.279L215.969 522.279ZM395.643 430.5C390.392 447.194 390.401 447.197 390.41 447.2C390.413 447.201 390.422 447.204 390.43 447.206C390.444 447.21 390.46 447.215 390.478 447.221C390.514 447.232 390.558 447.246 390.61 447.262C390.713 447.293 390.846 447.333 391.008 447.382C391.333 447.478 391.777 447.608 392.332 447.763C393.443 448.074 395.006 448.491 396.971 448.966C400.898 449.914 406.461 451.099 413.275 452.128C426.841 454.176 445.696 455.654 466.618 453.224C509.046 448.294 559.971 427.097 591 363.939L559.587 348.505C534.964 398.625 496.064 414.567 462.579 418.457C445.545 420.436 429.922 419.245 418.5 417.52C412.819 416.663 408.26 415.686 405.188 414.944C403.654 414.574 402.498 414.263 401.766 414.058C401.4 413.956 401.14 413.88 400.992 413.836C400.919 413.814 400.873 413.8 400.856 413.795C400.848 413.792 400.847 413.792 400.853 413.794C400.856 413.795 400.861 413.796 400.868 413.799C400.871 413.8 400.877 413.802 400.879 413.802C400.886 413.804 400.893 413.807 395.643 430.5ZM591 363.939C597.198 351.324 609.247 340.402 625.94 331.193C642.524 322.043 662.33 315.342 681.866 310.521C701.303 305.723 719.85 302.936 733.586 301.352C740.433 300.563 746.034 300.078 749.891 299.793C751.818 299.65 753.306 299.557 754.292 299.501C754.785 299.473 755.152 299.454 755.386 299.442C755.503 299.436 755.586 299.432 755.635 299.43C755.66 299.429 755.676 299.428 755.683 299.428C755.687 299.428 755.688 299.428 755.687 299.428C755.687 299.428 755.685 299.428 755.685 299.428C755.682 299.428 755.678 299.428 754.944 281.944C754.21 264.459 754.205 264.459 754.2 264.459C754.198 264.46 754.192 264.46 754.187 264.46C754.178 264.46 754.166 264.461 754.152 264.462C754.124 264.463 754.086 264.464 754.041 264.467C753.949 264.471 753.822 264.477 753.661 264.485C753.34 264.5 752.882 264.524 752.297 264.558C751.125 264.625 749.44 264.73 747.305 264.888C743.037 265.205 736.957 265.732 729.577 266.583C714.859 268.28 694.77 271.286 673.479 276.541C652.286 281.771 629.272 289.381 609.033 300.547C588.903 311.653 570.127 327.051 559.587 348.505L591 363.939ZM395.642 430.5C395.642 448 395.651 448 395.66 448C395.664 448 395.674 448 395.682 448C395.698 448 395.716 448 395.735 448C395.775 448 395.823 447.999 395.88 447.999C395.993 447.998 396.139 447.996 396.318 447.993C396.675 447.988 397.162 447.977 397.769 447.957C398.982 447.916 400.681 447.838 402.797 447.687C407.023 447.386 412.946 446.791 420.007 445.616C434.047 443.279 453.035 438.572 472.235 428.985C491.503 419.363 511.307 404.655 526.255 382.261C541.277 359.757 550.692 330.537 550.692 293.126H515.692C515.692 324.403 507.913 346.697 497.145 362.83C486.302 379.073 471.718 390.122 456.599 397.672C441.411 405.256 426.011 409.135 414.26 411.091C408.427 412.062 403.603 412.541 400.307 412.776C398.661 412.893 397.405 412.949 396.604 412.976C396.204 412.989 395.918 412.995 395.754 412.998C395.673 412.999 395.622 413 395.603 413C395.593 413 395.591 413 395.598 413C395.601 413 395.606 413 395.614 413C395.617 413 395.624 413 395.626 413C395.634 413 395.642 413 395.642 430.5ZM550.692 293.126C550.692 261.85 558.471 239.555 569.239 223.423C580.082 207.18 594.666 196.131 609.785 188.581C624.973 180.997 640.373 177.118 652.124 175.162C657.957 174.191 662.781 173.712 666.077 173.477C667.723 173.359 668.979 173.303 669.78 173.277C670.18 173.263 670.466 173.257 670.63 173.255C670.711 173.253 670.762 173.253 670.781 173.253C670.791 173.253 670.793 173.253 670.786 173.253C670.783 173.253 670.778 173.253 670.77 173.253C670.767 173.253 670.76 173.253 670.758 173.253C670.75 173.253 670.742 173.253 670.742 155.753C670.742 138.253 670.733 138.253 670.724 138.253C670.72 138.253 670.71 138.253 670.702 138.253C670.686 138.253 670.668 138.253 670.649 138.253C670.609 138.253 670.561 138.253 670.504 138.254C670.391 138.255 670.245 138.256 670.066 138.259C669.709 138.265 669.222 138.276 668.615 138.296C667.402 138.336 665.703 138.414 663.587 138.565C659.361 138.867 653.438 139.461 646.377 140.637C632.337 142.974 613.349 147.68 594.149 157.268C574.881 166.89 555.077 181.598 540.129 203.991C525.107 226.495 515.692 255.716 515.692 293.126H550.692ZM544.315 71.5733C531.949 59.191 531.946 59.1939 531.943 59.1972C531.941 59.199 531.937 59.2029 531.933 59.2066C531.926 59.2139 531.917 59.2233 531.905 59.2347C531.882 59.2577 531.851 59.2889 531.812 59.3284C531.733 59.4074 531.622 59.5192 531.48 59.6631C531.195 59.9508 530.786 60.3666 530.262 60.9033C529.215 61.9767 527.708 63.5348 525.826 65.5207C522.065 69.4902 516.79 75.1816 510.671 82.1371C498.485 95.9907 482.724 115.115 468.896 135.793C455.294 156.132 442.522 179.485 437.811 201.592C435.421 212.803 434.873 224.742 438.235 236.177C441.712 248.006 449.046 258.123 460.28 265.603L479.678 236.47C475.109 233.428 472.913 230.046 471.814 226.305C470.598 222.172 470.425 216.473 472.042 208.887C475.343 193.398 485.105 174.515 497.989 155.25C510.646 136.323 525.322 118.473 536.951 105.254C542.74 98.6731 547.717 93.3034 551.231 89.5958C552.986 87.7432 554.374 86.3088 555.31 85.3493C555.778 84.8696 556.133 84.5089 556.366 84.2742C556.482 84.1568 556.567 84.071 556.62 84.0176C556.647 83.9909 556.665 83.9723 556.675 83.9619C556.681 83.9567 556.684 83.9536 556.685 83.9525C556.685 83.952 556.685 83.9527 556.685 83.9524C556.684 83.9537 556.682 83.9555 544.315 71.5733ZM460.28 265.603C464.849 268.646 467.045 272.028 468.145 275.768C469.36 279.902 469.533 285.601 467.916 293.187C464.616 308.675 454.853 327.558 441.969 346.824C429.312 365.75 414.636 383.6 403.008 396.82C397.219 403.401 392.241 408.77 388.727 412.478C386.972 414.331 385.585 415.765 384.648 416.724C384.18 417.204 383.825 417.565 383.593 417.8C383.477 417.917 383.391 418.003 383.338 418.056C383.312 418.083 383.293 418.101 383.283 418.112C383.278 418.117 383.274 418.12 383.273 418.121C383.273 418.122 383.274 418.121 383.273 418.121C383.275 418.12 383.276 418.118 395.643 430.5C408.009 442.883 408.012 442.88 408.016 442.876C408.017 442.875 408.021 442.871 408.025 442.867C408.032 442.86 408.042 442.85 408.053 442.839C408.076 442.816 408.107 442.785 408.146 442.745C408.225 442.666 408.336 442.554 408.478 442.411C408.763 442.123 409.172 441.707 409.696 441.17C410.744 440.097 412.25 438.539 414.132 436.553C417.894 432.583 423.168 426.892 429.287 419.937C441.473 406.083 457.234 386.959 471.063 366.28C484.665 345.941 497.437 322.589 502.148 300.482C504.537 289.27 505.085 277.332 501.723 265.896C498.246 254.068 490.912 243.951 479.678 236.47L460.28 265.603ZM378.142 236.25C378.142 236.398 378.142 236.546 378.142 236.695C378.142 236.843 378.142 236.992 378.142 237.141C378.142 237.29 378.142 237.439 378.142 237.588C378.142 237.737 378.142 237.886 378.142 238.036C378.142 238.185 378.142 238.335 378.142 238.484C378.142 238.634 378.142 238.784 378.142 238.934C378.142 239.084 378.142 239.234 378.142 239.385C378.142 239.535 378.142 239.686 378.142 239.836C378.142 239.987 378.142 240.138 378.142 240.289C378.142 240.44 378.142 240.591 378.142 240.742C378.142 240.894 378.142 241.045 378.142 241.197C378.142 241.348 378.142 241.5 378.142 241.652C378.142 241.804 378.142 241.956 378.142 242.108C378.142 242.26 378.142 242.412 378.142 242.565C378.142 242.717 378.142 242.87 378.142 243.023C378.142 243.176 378.142 243.328 378.142 243.482C378.142 243.635 378.142 243.788 378.142 243.941C378.142 244.094 378.142 244.248 378.142 244.402C378.142 244.555 378.142 244.709 378.142 244.863C378.142 245.017 378.142 245.171 378.142 245.325C378.142 245.479 378.142 245.633 378.142 245.788C378.142 245.942 378.142 246.097 378.142 246.252C378.142 246.406 378.142 246.561 378.142 246.716C378.142 246.871 378.142 247.026 378.142 247.182C378.142 247.337 378.142 247.492 378.142 247.648C378.142 247.803 378.142 247.959 378.142 248.115C378.142 248.27 378.142 248.426 378.142 248.582C378.142 248.738 378.142 248.895 378.142 249.051C378.142 249.207 378.142 249.364 378.142 249.52C378.142 249.677 378.142 249.834 378.142 249.99C378.142 250.147 378.142 250.304 378.142 250.461C378.142 250.618 378.142 250.775 378.142 250.933C378.142 251.09 378.142 251.248 378.142 251.405C378.142 251.563 378.142 251.72 378.142 251.878C378.142 252.036 378.142 252.194 378.142 252.352C378.142 252.51 378.142 252.668 378.142 252.826C378.142 252.985 378.142 253.143 378.142 253.302C378.142 253.46 378.142 253.619 378.142 253.778C378.142 253.936 378.142 254.095 378.142 254.254C378.142 254.413 378.142 254.572 378.142 254.732C378.142 254.891 378.142 255.05 378.142 255.21C378.142 255.369 378.142 255.529 378.142 255.688C378.142 255.848 378.142 256.008 378.142 256.168C378.142 256.328 378.142 256.488 378.142 256.648C378.142 256.808 378.142 256.968 378.142 257.128C378.142 257.289 378.142 257.449 378.142 257.61C378.142 257.77 378.142 257.931 378.142 258.092C378.142 258.252 378.142 258.413 378.142 258.574C378.142 258.735 378.142 258.896 378.142 259.058C378.142 259.219 378.142 259.38 378.142 259.541C378.142 259.703 378.142 259.864 378.142 260.026C378.142 260.187 378.142 260.349 378.142 260.511C378.142 260.673 378.142 260.835 378.142 260.997C378.142 261.159 378.142 261.321 378.142 261.483C378.142 261.645 378.142 261.807 378.142 261.97C378.142 262.132 378.142 262.295 378.142 262.457C378.142 262.62 378.142 262.782 378.142 262.945C378.142 263.108 378.142 263.271 378.142 263.434C378.142 263.597 378.142 263.76 378.142 263.923C378.142 264.086 378.142 264.249 378.142 264.413C378.142 264.576 378.142 264.739 378.142 264.903C378.142 265.066 378.142 265.23 378.142 265.394C378.142 265.557 378.142 265.721 378.142 265.885C378.142 266.049 378.142 266.213 378.142 266.377C378.142 266.541 378.142 266.705 378.142 266.869C378.142 267.033 378.142 267.197 378.142 267.362C378.142 267.526 378.142 267.691 378.142 267.855C378.142 268.02 378.142 268.184 378.142 268.349C378.142 268.514 378.142 268.678 378.142 268.843C378.142 269.008 378.142 269.173 378.142 269.338C378.142 269.503 378.142 269.668 378.142 269.833C378.142 269.998 378.142 270.164 378.142 270.329C378.142 270.494 378.142 270.66 378.142 270.825C378.142 270.99 378.142 271.156 378.142 271.322C378.142 271.487 378.142 271.653 378.142 271.819C378.142 271.984 378.142 272.15 378.142 272.316C378.142 272.482 378.142 272.648 378.142 272.814C378.142 272.98 378.142 273.146 378.142 273.312C378.142 273.479 378.142 273.645 378.142 273.811C378.142 273.977 378.142 274.144 378.142 274.31C378.142 274.477 378.142 274.643 378.142 274.81C378.142 274.976 378.142 275.143 378.142 275.31C378.142 275.476 378.142 275.643 378.142 275.81C378.142 275.977 378.142 276.144 378.142 276.311C378.142 276.478 378.142 276.645 378.142 276.812C378.142 276.979 378.142 277.146 378.142 277.313C378.142 277.48 378.142 277.648 378.142 277.815C378.142 277.982 378.142 278.15 378.142 278.317C378.142 278.485 378.142 278.652 378.142 278.82C378.142 278.987 378.142 279.155 378.142 279.322C378.142 279.49 378.142 279.658 378.142 279.826C378.142 279.993 378.142 280.161 378.142 280.329C378.142 280.497 378.142 280.665 378.142 280.833C378.142 281.001 378.142 281.169 378.142 281.337C378.142 281.505 378.142 281.673 378.142 281.841C378.142 282.009 378.142 282.178 378.142 282.346C378.142 282.514 378.142 282.682 378.142 282.851C378.142 283.019 378.142 283.188 378.142 283.356C378.142 283.524 378.142 283.693 378.142 283.861C378.142 284.03 378.142 284.199 378.142 284.367C378.142 284.536 378.142 284.704 378.142 284.873C378.142 285.042 378.142 285.211 378.142 285.379C378.142 285.548 378.142 285.717 378.142 285.886C378.142 286.055 378.142 286.224 378.142 286.393C378.142 286.562 378.142 286.731 378.142 286.9C378.142 287.069 378.142 287.238 378.142 287.407C378.142 287.576 378.142 287.745 378.142 287.914C378.142 288.083 378.142 288.252 378.142 288.422C378.142 288.591 378.142 288.76 378.142 288.929C378.142 289.099 378.142 289.268 378.142 289.437C378.142 289.607 378.142 289.776 378.142 289.945C378.142 290.115 378.142 290.284 378.142 290.454C378.142 290.623 378.142 290.793 378.142 290.962C378.142 291.132 378.142 291.301 378.142 291.471C378.142 291.64 378.142 291.81 378.142 291.98C378.142 292.149 378.142 292.319 378.142 292.489C378.142 292.658 378.142 292.828 378.142 292.998C378.142 293.167 378.142 293.337 378.142 293.507C378.142 293.677 378.142 293.846 378.142 294.016C378.142 294.186 378.142 294.356 378.142 294.526C378.142 294.696 378.142 294.865 378.142 295.035C378.142 295.205 378.142 295.375 378.142 295.545C378.142 295.715 378.142 295.885 378.142 296.055C378.142 296.225 378.142 296.395 378.142 296.565C378.142 296.735 378.142 296.905 378.142 297.075C378.142 297.244 378.142 297.414 378.142 297.585C378.142 297.755 378.142 297.925 378.142 298.095C378.142 298.265 378.142 298.435 378.142 298.605C378.142 298.775 378.142 298.945 378.142 299.115C378.142 299.285 378.142 299.455 378.142 299.625C378.142 299.795 378.142 299.965 378.142 300.135C378.142 300.305 378.142 300.476 378.142 300.646C378.142 300.816 378.142 300.986 378.142 301.156C378.142 301.326 378.142 301.496 378.142 301.666C378.142 301.836 378.142 302.007 378.142 302.177C378.142 302.347 378.142 302.517 378.142 302.687C378.142 302.857 378.142 303.027 378.142 303.197C378.142 303.368 378.142 303.538 378.142 303.708C378.142 303.878 378.142 304.048 378.142 304.218C378.142 304.388 378.142 304.558 378.142 304.728C378.142 304.898 378.142 305.069 378.142 305.239C378.142 305.409 378.142 305.579 378.142 305.749C378.142 305.919 378.142 306.089 378.142 306.259C378.142 306.429 378.142 306.599 378.142 306.769C378.142 306.939 378.142 307.109 378.142 307.279C378.142 307.449 378.142 307.619 378.142 307.789C378.142 307.959 378.142 308.129 378.142 308.299C378.142 308.469 378.142 308.639 378.142 308.809C378.142 308.979 378.142 309.149 378.142 309.319C378.142 309.488 378.142 309.658 378.142 309.828C378.142 309.998 378.142 310.168 378.142 310.338C378.142 310.508 378.142 310.677 378.142 310.847C378.142 311.017 378.142 311.187 378.142 311.356C378.142 311.526 378.142 311.696 378.142 311.866C378.142 312.035 378.142 312.205 378.142 312.375C378.142 312.544 378.142 312.714 378.142 312.884C378.142 313.053 378.142 313.223 378.142 313.392C378.142 313.562 378.142 313.731 378.142 313.901C378.142 314.07 378.142 314.24 378.142 314.409C378.142 314.579 378.142 314.748 378.142 314.918C378.142 315.087 378.142 315.256 378.142 315.426C378.142 315.595 378.142 315.764 378.142 315.933C378.142 316.103 378.142 316.272 378.142 316.441C378.142 316.61 378.142 316.78 378.142 316.949C378.142 317.118 378.142 317.287 378.142 317.456C378.142 317.625 378.142 317.794 378.142 317.963C378.142 318.132 378.142 318.301 378.142 318.47C378.142 318.639 378.142 318.808 378.142 318.977C378.142 319.145 378.142 319.314 378.142 319.483C378.142 319.652 378.142 319.82 378.142 319.989C378.142 320.158 378.142 320.326 378.142 320.495C378.142 320.664 378.142 320.832 378.142 321.001C378.142 321.169 378.142 321.338 378.142 321.506C378.142 321.674 378.142 321.843 378.142 322.011C378.142 322.179 378.142 322.348 378.142 322.516C378.142 322.684 378.142 322.852 378.142 323.02C378.142 323.189 378.142 323.357 378.142 323.525C378.142 323.693 378.142 323.861 378.142 324.029C378.142 324.197 378.142 324.365 378.142 324.532C378.142 324.7 378.142 324.868 378.142 325.036C378.142 325.203 378.142 325.371 378.142 325.539C378.142 325.706 378.142 325.874 378.142 326.041C378.142 326.209 378.142 326.376 378.142 326.544C378.142 326.711 378.142 326.878 378.142 327.046C378.142 327.213 378.142 327.38 378.142 327.547C378.142 327.715 378.142 327.882 378.142 328.049C378.142 328.216 378.142 328.383 378.142 328.55C378.142 328.716 378.142 328.883 378.142 329.05C378.142 329.217 378.142 329.384 378.142 329.55C378.142 329.717 378.142 329.884 378.142 330.05C378.142 330.217 378.142 330.383 378.142 330.55C378.142 330.716 378.142 330.882 378.142 331.049C378.142 331.215 378.142 331.381 378.142 331.547C378.142 331.713 378.142 331.879 378.142 332.045C378.142 332.211 378.142 332.377 378.142 332.543C378.142 332.709 378.142 332.875 378.142 333.04C378.142 333.206 378.142 333.372 378.142 333.537C378.142 333.703 378.142 333.868 378.142 334.034C378.142 334.199 378.142 334.364 378.142 334.53C378.142 334.695 378.142 334.86 378.142 335.025C378.142 335.19 378.142 335.355 378.142 335.52C378.142 335.685 378.142 335.85 378.142 336.015C378.142 336.18 378.142 336.344 378.142 336.509C378.142 336.674 378.142 336.838 378.142 337.003C378.142 337.167 378.142 337.332 378.142 337.496C378.142 337.66 378.142 337.824 378.142 337.988C378.142 338.153 378.142 338.317 378.142 338.481C378.142 338.645 378.142 338.808 378.142 338.972C378.142 339.136 378.142 339.3 378.142 339.463C378.142 339.627 378.142 339.79 378.142 339.954C378.142 340.117 378.142 340.281 378.142 340.444C378.142 340.607 378.142 340.77 378.142 340.933C378.142 341.096 378.142 341.259 378.142 341.422C378.142 341.585 378.142 341.748 378.142 341.911C378.142 342.073 378.142 342.236 378.142 342.398C378.142 342.561 378.142 342.723 378.142 342.886C378.142 343.048 378.142 343.21 378.142 343.372C378.142 343.534 378.142 343.696 378.142 343.858C378.142 344.02 378.142 344.182 378.142 344.344C378.142 344.506 378.142 344.667 378.142 344.829C378.142 344.99 378.142 345.152 378.142 345.313C378.142 345.474 378.142 345.635 378.142 345.797C378.142 345.958 378.142 346.119 378.142 346.28C378.142 346.441 378.142 346.601 378.142 346.762C378.142 346.923 378.142 347.083 378.142 347.244C378.142 347.404 378.142 347.565 378.142 347.725C378.142 347.885 378.142 348.045 378.142 348.205C378.142 348.365 378.142 348.525 378.142 348.685C378.142 348.845 378.142 349.005 378.142 349.164C378.142 349.324 378.142 349.483 378.142 349.643C378.142 349.802 378.142 349.961 378.142 350.12C378.142 350.28 378.142 350.439 378.142 350.598C378.142 350.756 378.142 350.915 378.142 351.074C378.142 351.233 378.142 351.391 378.142 351.55C378.142 351.708 378.142 351.866 378.142 352.025C378.142 352.183 378.142 352.341 378.142 352.499C378.142 352.657 378.142 352.815 378.142 352.972C378.142 353.13 378.142 353.288 378.142 353.445C378.142 353.603 378.142 353.76 378.142 353.917C378.142 354.074 378.142 354.232 378.142 354.388C378.142 354.545 378.142 354.702 378.142 354.859C378.142 355.016 378.142 355.172 378.142 355.329C378.142 355.485 378.142 355.642 378.142 355.798C378.142 355.954 378.142 356.11 378.142 356.266C378.142 356.422 378.142 356.578 378.142 356.734C378.142 356.889 378.142 357.045 378.142 357.2C378.142 357.356 378.142 357.511 378.142 357.666C378.142 357.821 378.142 357.976 378.142 358.131C378.142 358.286 378.142 358.441 378.142 358.596C378.142 358.75 378.142 358.905 378.142 359.059C378.142 359.213 378.142 359.368 378.142 359.522C378.142 359.676 378.142 359.83 378.142 359.983C378.142 360.137 378.142 360.291 378.142 360.444C378.142 360.598 378.142 360.751 378.142 360.905C378.142 361.058 378.142 361.211 378.142 361.364C378.142 361.517 378.142 361.67 378.142 361.822C378.142 361.975 378.142 362.127 378.142 362.28C378.142 362.432 378.142 362.584 378.142 362.736C378.142 362.888 378.142 363.04 378.142 363.192C378.142 363.344 378.142 363.496 378.142 363.647C378.142 363.799 378.142 363.95 378.142 364.101C378.142 364.252 378.142 364.403 378.142 364.554C378.142 364.705 378.142 364.856 378.142 365.006C378.142 365.157 378.142 365.307 378.142 365.458C378.142 365.608 378.142 365.758 378.142 365.908C378.142 366.058 378.142 366.208 378.142 366.357C378.142 366.507 378.142 366.656 378.142 366.806C378.142 366.955 378.142 367.104 378.142 367.253C378.142 367.402 378.142 367.551 378.142 367.7C378.142 367.849 378.142 367.997 378.142 368.145C378.142 368.294 378.142 368.442 378.142 368.59C378.142 368.738 378.142 368.886 378.142 369.034C378.142 369.181 378.142 369.329 378.142 369.476C378.142 369.624 378.142 369.771 378.142 369.918C378.142 370.065 378.142 370.212 378.142 370.359C378.142 370.505 378.142 370.652 378.142 370.798C378.142 370.945 378.142 371.091 378.142 371.237C378.142 371.383 378.142 371.529 378.142 371.675C378.142 371.82 378.142 371.966 378.142 372.111C378.142 372.257 378.142 372.402 378.142 372.547C378.142 372.692 378.142 372.837 378.142 372.981C378.142 373.126 378.142 373.271 378.142 373.415C378.142 373.559 378.142 373.703 378.142 373.847C378.142 373.991 378.142 374.135 378.142 374.279C378.142 374.422 378.142 374.566 378.142 374.709C378.142 374.852 378.142 374.995 378.142 375.138C378.142 375.281 378.142 375.424 378.142 375.566C378.142 375.709 378.142 375.851 378.142 375.993C378.142 376.136 378.142 376.278 378.142 376.419C378.142 376.561 378.142 376.703 378.142 376.844C378.142 376.986 378.142 377.127 378.142 377.268C378.142 377.409 378.142 377.55 378.142 377.691C378.142 377.831 378.142 377.972 378.142 378.112C378.142 378.252 378.142 378.393 378.142 378.532C378.142 378.672 378.142 378.812 378.142 378.952C378.142 379.091 378.142 379.231 378.142 379.37C378.142 379.509 378.142 379.648 378.142 379.787C378.142 379.925 378.142 380.064 378.142 380.202C378.142 380.341 378.142 380.479 378.142 380.617C378.142 380.755 378.142 380.893 378.142 381.03C378.142 381.168 378.142 381.305 378.142 381.443C378.142 381.58 378.142 381.717 378.142 381.854C378.142 381.99 378.142 382.127 378.142 382.263C378.142 382.4 378.142 382.536 378.142 382.672C378.142 382.808 378.142 382.944 378.142 383.079C378.142 383.215 378.142 383.35 378.142 383.486C378.142 383.621 378.142 383.756 378.142 383.891C378.142 384.025 378.142 384.16 378.142 384.294C378.142 384.429 378.142 384.563 378.142 384.697C378.142 384.831 378.142 384.965 378.142 385.098C378.142 385.232 378.142 385.365 378.142 385.498C378.142 385.631 378.142 385.764 378.142 385.897C378.142 386.029 378.142 386.162 378.142 386.294C378.142 386.426 378.142 386.558 378.142 386.69C378.142 386.822 378.142 386.954 378.142 387.085C378.142 387.217 378.142 387.348 378.142 387.479C378.142 387.61 378.142 387.741 378.142 387.871C378.142 388.002 378.142 388.132 378.142 388.262C378.142 388.392 378.142 388.522 378.142 388.652C378.142 388.781 378.142 388.911 378.142 389.04C378.142 389.169 378.142 389.298 378.142 389.427C378.142 389.556 378.142 389.684 378.142 389.813C378.142 389.941 378.142 390.069 378.142 390.197C378.142 390.325 378.142 390.453 378.142 390.58C378.142 390.707 378.142 390.835 378.142 390.962C378.142 391.089 378.142 391.215 378.142 391.342C378.142 391.468 378.142 391.595 378.142 391.721C378.142 391.847 378.142 391.973 378.142 392.098C378.142 392.224 378.142 392.349 378.142 392.474C378.142 392.6 378.142 392.724 378.142 392.849C378.142 392.974 378.142 393.098 378.142 393.222C378.142 393.347 378.142 393.471 378.142 393.594C378.142 393.718 378.142 393.842 378.142 393.965C378.142 394.088 378.142 394.211 378.142 394.334C378.142 394.457 378.142 394.579 378.142 394.702C378.142 394.824 378.142 394.946 378.142 395.068C378.142 395.19 378.142 395.311 378.142 395.433C378.142 395.554 378.142 395.675 378.142 395.796C378.142 395.917 378.142 396.037 378.142 396.158C378.142 396.278 378.142 396.398 378.142 396.518C378.142 396.638 378.142 396.758 378.142 396.877C378.142 396.997 378.142 397.116 378.142 397.235C378.142 397.354 378.142 397.472 378.142 397.591C378.142 397.709 378.142 397.827 378.142 397.945C378.142 398.063 378.142 398.181 378.142 398.298C378.142 398.415 378.142 398.533 378.142 398.649C378.142 398.766 378.142 398.883 378.142 398.999C378.142 399.116 378.142 399.232 378.142 399.348C378.142 399.464 378.142 399.579 378.142 399.695C378.142 399.81 378.142 399.925 378.142 400.04C378.142 400.155 378.142 400.27 378.142 400.384C378.142 400.498 378.142 400.612 378.142 400.726C378.142 400.84 378.142 400.954 378.142 401.067C378.142 401.18 378.142 401.293 378.142 401.406C378.142 401.519 378.142 401.631 378.142 401.744C378.142 401.856 378.142 401.968 378.142 402.079C378.142 402.191 378.142 402.303 378.142 402.414C378.142 402.525 378.142 402.636 378.142 402.747C378.142 402.857 378.142 402.968 378.142 403.078C378.142 403.188 378.142 403.298 378.142 403.407C378.142 403.517 378.142 403.626 378.142 403.735C378.142 403.845 378.142 403.953 378.142 404.062C378.142 404.17 378.142 404.279 378.142 404.387C378.142 404.494 378.142 404.602 378.142 404.71C378.142 404.817 378.142 404.924 378.142 405.031C378.142 405.138 378.142 405.244 378.142 405.351C378.142 405.457 378.142 405.563 378.142 405.669C378.142 405.775 378.142 405.88 378.142 405.985C378.142 406.091 378.142 406.195 378.142 406.3C378.142 406.405 378.142 406.509 378.142 406.613C378.142 406.717 378.142 406.821 378.142 406.925C378.142 407.028 378.142 407.131 378.142 407.234C378.142 407.337 378.142 407.44 378.142 407.542C378.142 407.645 378.142 407.747 378.142 407.849C378.142 407.951 378.142 408.052 378.142 408.153C378.142 408.255 378.142 408.355 378.142 408.456C378.142 408.557 378.142 408.657 378.142 408.757C378.142 408.857 378.142 408.957 378.142 409.057C378.142 409.156 378.142 409.255 378.142 409.354C378.142 409.453 378.142 409.552 378.142 409.65C378.142 409.749 378.142 409.847 378.142 409.944C378.142 410.042 378.142 410.14 378.142 410.237C378.142 410.334 378.142 410.431 378.142 410.527C378.142 410.624 378.142 410.72 378.142 410.816C378.142 410.912 378.142 411.008 378.142 411.103C378.142 411.198 378.142 411.294 378.142 411.388C378.142 411.483 378.142 411.578 378.142 411.672C378.142 411.766 378.142 411.86 378.142 411.953C378.142 412.047 378.142 412.14 378.142 412.233C378.142 412.326 378.142 412.419 378.142 412.511C378.142 412.603 378.142 412.696 378.142 412.787C378.142 412.879 378.142 412.97 378.142 413.062C378.142 413.153 378.142 413.244 378.142 413.334C378.142 413.425 378.142 413.515 378.142 413.605C378.142 413.695 378.142 413.784 378.142 413.873C378.142 413.963 378.142 414.052 378.142 414.14C378.142 414.229 378.142 414.317 378.142 414.405C378.142 414.493 378.142 414.581 378.142 414.668C378.142 414.756 378.142 414.843 378.142 414.93C378.142 415.016 378.142 415.103 378.142 415.189C378.142 415.275 378.142 415.361 378.142 415.446C378.142 415.532 378.142 415.617 378.142 415.702C378.142 415.787 378.142 415.871 378.142 415.955C378.142 416.04 378.142 416.123 378.142 416.207C378.142 416.291 378.142 416.374 378.142 416.457C378.142 416.54 378.142 416.622 378.142 416.705C378.142 416.787 378.142 416.869 378.142 416.95C378.142 417.032 378.142 417.113 378.142 417.194C378.142 417.275 378.142 417.356 378.142 417.436C378.142 417.517 378.142 417.597 378.142 417.676C378.142 417.756 378.142 417.835 378.142 417.914C378.142 417.993 378.142 418.072 378.142 418.15C378.142 418.229 378.142 418.307 378.142 418.384C378.142 418.462 378.142 418.539 378.142 418.616C378.142 418.693 378.142 418.77 378.142 418.846C378.142 418.923 378.142 418.999 378.142 419.074C378.142 419.15 378.142 419.225 378.142 419.3C378.142 419.375 378.142 419.45 378.142 419.524C378.142 419.598 378.142 419.672 378.142 419.746C378.142 419.82 378.142 419.893 378.142 419.966C378.142 420.039 378.142 420.111 378.142 420.184C378.142 420.256 378.142 420.328 378.142 420.4C378.142 420.471 378.142 420.542 378.142 420.613C378.142 420.684 378.142 420.755 378.142 420.825C378.142 420.895 378.142 420.965 378.142 421.034C378.142 421.104 378.142 421.173 378.142 421.242C378.142 421.311 378.142 421.379 378.142 421.447C378.142 421.515 378.142 421.583 378.142 421.651C378.142 421.718 378.142 421.785 378.142 421.852C378.142 421.918 378.142 421.985 378.142 422.051C378.142 422.117 378.142 422.182 378.142 422.248C378.142 422.313 378.142 422.378 378.142 422.443C378.142 422.507 378.142 422.571 378.142 422.635C378.142 422.699 378.142 422.763 378.142 422.826C378.142 422.889 378.142 422.952 378.142 423.014C378.142 423.077 378.142 423.139 378.142 423.201C378.142 423.262 378.142 423.324 378.142 423.385C378.142 423.446 378.142 423.506 378.142 423.566C378.142 423.627 378.142 423.687 378.142 423.746C378.142 423.806 378.142 423.865 378.142 423.924C378.142 423.983 378.142 424.041 378.142 424.099C378.142 424.157 378.142 424.215 378.142 424.272C378.142 424.33 378.142 424.387 378.142 424.443C378.142 424.5 378.142 424.556 378.142 424.612C378.142 424.668 378.142 424.723 378.142 424.779C378.142 424.834 378.142 424.888 378.142 424.943C378.142 424.997 378.142 425.051 378.142 425.105C378.142 425.159 378.142 425.212 378.142 425.265C378.142 425.318 378.142 425.37 378.142 425.422C378.142 425.474 378.142 425.526 378.142 425.578C378.142 425.629 378.142 425.68 378.142 425.731C378.142 425.781 378.142 425.831 378.142 425.881C378.142 425.931 378.142 425.981 378.142 426.03C378.142 426.079 378.142 426.128 378.142 426.176C378.142 426.224 378.142 426.272 378.142 426.32C378.142 426.368 378.142 426.415 378.142 426.462C378.142 426.508 378.142 426.555 378.142 426.601C378.142 426.647 378.142 426.693 378.142 426.738C378.142 426.783 378.142 426.828 378.142 426.873C378.142 426.917 378.142 426.961 378.142 427.005C378.142 427.049 378.142 427.092 378.142 427.135C378.142 427.178 378.142 427.22 378.142 427.263C378.142 427.305 378.142 427.347 378.142 427.388C378.142 427.429 378.142 427.47 378.142 427.511C378.142 427.552 378.142 427.592 378.142 427.632C378.142 427.671 378.142 427.711 378.142 427.75C378.142 427.789 378.142 427.827 378.142 427.866C378.142 427.904 378.142 427.942 378.142 427.979C378.142 428.016 378.142 428.053 378.142 428.09C378.142 428.127 378.142 428.163 378.142 428.199C378.142 428.235 378.142 428.27 378.142 428.305C378.142 428.34 378.142 428.375 378.142 428.409C378.142 428.443 378.142 428.477 378.142 428.51C378.142 428.544 378.142 428.577 378.142 428.609C378.142 428.642 378.142 428.674 378.142 428.706C378.142 428.738 378.142 428.769 378.142 428.8C378.142 428.831 378.142 428.861 378.142 428.892C378.142 428.922 378.142 428.952 378.142 428.981C378.142 429.01 378.142 429.039 378.142 429.068C378.142 429.096 378.142 429.124 378.142 429.152C378.142 429.18 378.142 429.207 378.142 429.234C378.142 429.26 378.142 429.287 378.142 429.313C378.142 429.339 378.142 429.365 378.142 429.39C378.142 429.415 378.142 429.44 378.142 429.464C378.142 429.488 378.142 429.512 378.142 429.536C378.142 429.559 378.142 429.582 378.142 429.605C378.142 429.628 378.142 429.65 378.142 429.672C378.142 429.694 378.142 429.715 378.142 429.736C378.142 429.757 378.142 429.778 378.142 429.798C378.142 429.818 378.142 429.838 378.142 429.857C378.142 429.876 378.142 429.895 378.142 429.914C378.142 429.932 378.142 429.95 378.142 429.968C378.142 429.985 378.142 430.002 378.142 430.019C378.142 430.036 378.142 430.052 378.142 430.068C378.142 430.084 378.142 430.099 378.142 430.114C378.142 430.129 378.142 430.144 378.142 430.158C378.142 430.172 378.142 430.186 378.142 430.199C378.142 430.212 378.142 430.225 378.142 430.238C378.142 430.25 378.142 430.262 378.142 430.274C378.142 430.285 378.142 430.296 378.142 430.307C378.142 430.318 378.142 430.328 378.142 430.338C378.142 430.347 378.142 430.357 378.142 430.366C378.142 430.375 378.142 430.383 378.142 430.391C378.142 430.399 378.142 430.407 378.142 430.414C378.142 430.421 378.142 430.428 378.142 430.434C378.142 430.44 378.142 430.446 378.142 430.451C378.142 430.457 378.142 430.462 378.142 430.466C378.142 430.471 378.142 430.475 378.142 430.478C378.142 430.482 378.142 430.485 378.142 430.488C378.142 430.49 378.142 430.493 378.142 430.495C378.142 430.496 378.142 430.498 378.142 430.499C378.142 430.499 378.142 430.5 395.642 430.5C413.142 430.5 413.142 430.499 413.142 430.499C413.142 430.498 413.142 430.496 413.142 430.495C413.142 430.493 413.142 430.49 413.142 430.488C413.142 430.485 413.142 430.482 413.142 430.478C413.142 430.475 413.142 430.471 413.142 430.466C413.142 430.462 413.142 430.457 413.142 430.451C413.142 430.446 413.142 430.44 413.142 430.434C413.142 430.428 413.142 430.421 413.142 430.414C413.142 430.407 413.142 430.399 413.142 430.391C413.142 430.383 413.142 430.375 413.142 430.366C413.142 430.357 413.142 430.347 413.142 430.338C413.142 430.328 413.142 430.318 413.142 430.307C413.142 430.296 413.142 430.285 413.142 430.274C413.142 430.262 413.142 430.25 413.142 430.238C413.142 430.225 413.142 430.212 413.142 430.199C413.142 430.186 413.142 430.172 413.142 430.158C413.142 430.144 413.142 430.129 413.142 430.114C413.142 430.099 413.142 430.084 413.142 430.068C413.142 430.052 413.142 430.036 413.142 430.019C413.142 430.002 413.142 429.985 413.142 429.968C413.142 429.95 413.142 429.932 413.142 429.914C413.142 429.895 413.142 429.876 413.142 429.857C413.142 429.838 413.142 429.818 413.142 429.798C413.142 429.778 413.142 429.757 413.142 429.736C413.142 429.715 413.142 429.694 413.142 429.672C413.142 429.65 413.142 429.628 413.142 429.605C413.142 429.582 413.142 429.559 413.142 429.536C413.142 429.512 413.142 429.488 413.142 429.464C413.142 429.44 413.142 429.415 413.142 429.39C413.142 429.365 413.142 429.339 413.142 429.313C413.142 429.287 413.142 429.26 413.142 429.234C413.142 429.207 413.142 429.18 413.142 429.152C413.142 429.124 413.142 429.096 413.142 429.068C413.142 429.039 413.142 429.01 413.142 428.981C413.142 428.952 413.142 428.922 413.142 428.892C413.142 428.861 413.142 428.831 413.142 428.8C413.142 428.769 413.142 428.738 413.142 428.706C413.142 428.674 413.142 428.642 413.142 428.609C413.142 428.577 413.142 428.544 413.142 428.51C413.142 428.477 413.142 428.443 413.142 428.409C413.142 428.375 413.142 428.34 413.142 428.305C413.142 428.27 413.142 428.235 413.142 428.199C413.142 428.163 413.142 428.127 413.142 428.09C413.142 428.053 413.142 428.016 413.142 427.979C413.142 427.942 413.142 427.904 413.142 427.866C413.142 427.827 413.142 427.789 413.142 427.75C413.142 427.711 413.142 427.671 413.142 427.632C413.142 427.592 413.142 427.552 413.142 427.511C413.142 427.47 413.142 427.429 413.142 427.388C413.142 427.347 413.142 427.305 413.142 427.263C413.142 427.22 413.142 427.178 413.142 427.135C413.142 427.092 413.142 427.049 413.142 427.005C413.142 426.961 413.142 426.917 413.142 426.873C413.142 426.828 413.142 426.783 413.142 426.738C413.142 426.693 413.142 426.647 413.142 426.601C413.142 426.555 413.142 426.508 413.142 426.462C413.142 426.415 413.142 426.368 413.142 426.32C413.142 426.272 413.142 426.224 413.142 426.176C413.142 426.128 413.142 426.079 413.142 426.03C413.142 425.981 413.142 425.931 413.142 425.881C413.142 425.831 413.142 425.781 413.142 425.731C413.142 425.68 413.142 425.629 413.142 425.578C413.142 425.526 413.142 425.474 413.142 425.422C413.142 425.37 413.142 425.318 413.142 425.265C413.142 425.212 413.142 425.159 413.142 425.105C413.142 425.051 413.142 424.997 413.142 424.943C413.142 424.888 413.142 424.834 413.142 424.779C413.142 424.723 413.142 424.668 413.142 424.612C413.142 424.556 413.142 424.5 413.142 424.443C413.142 424.387 413.142 424.33 413.142 424.272C413.142 424.215 413.142 424.157 413.142 424.099C413.142 424.041 413.142 423.983 413.142 423.924C413.142 423.865 413.142 423.806 413.142 423.746C413.142 423.687 413.142 423.627 413.142 423.566C413.142 423.506 413.142 423.446 413.142 423.385C413.142 423.324 413.142 423.262 413.142 423.201C413.142 423.139 413.142 423.077 413.142 423.014C413.142 422.952 413.142 422.889 413.142 422.826C413.142 422.763 413.142 422.699 413.142 422.635C413.142 422.571 413.142 422.507 413.142 422.443C413.142 422.378 413.142 422.313 413.142 422.248C413.142 422.182 413.142 422.117 413.142 422.051C413.142 421.985 413.142 421.918 413.142 421.852C413.142 421.785 413.142 421.718 413.142 421.651C413.142 421.583 413.142 421.515 413.142 421.447C413.142 421.379 413.142 421.311 413.142 421.242C413.142 421.173 413.142 421.104 413.142 421.034C413.142 420.965 413.142 420.895 413.142 420.825C413.142 420.755 413.142 420.684 413.142 420.613C413.142 420.542 413.142 420.471 413.142 420.4C413.142 420.328 413.142 420.256 413.142 420.184C413.142 420.111 413.142 420.039 413.142 419.966C413.142 419.893 413.142 419.82 413.142 419.746C413.142 419.672 413.142 419.598 413.142 419.524C413.142 419.45 413.142 419.375 413.142 419.3C413.142 419.225 413.142 419.15 413.142 419.074C413.142 418.999 413.142 418.923 413.142 418.846C413.142 418.77 413.142 418.693 413.142 418.616C413.142 418.539 413.142 418.462 413.142 418.384C413.142 418.307 413.142 418.229 413.142 418.15C413.142 418.072 413.142 417.993 413.142 417.914C413.142 417.835 413.142 417.756 413.142 417.676C413.142 417.597 413.142 417.517 413.142 417.436C413.142 417.356 413.142 417.275 413.142 417.194C413.142 417.113 413.142 417.032 413.142 416.95C413.142 416.869 413.142 416.787 413.142 416.705C413.142 416.622 413.142 416.54 413.142 416.457C413.142 416.374 413.142 416.291 413.142 416.207C413.142 416.123 413.142 416.04 413.142 415.955C413.142 415.871 413.142 415.787 413.142 415.702C413.142 415.617 413.142 415.532 413.142 415.446C413.142 415.361 413.142 415.275 413.142 415.189C413.142 415.103 413.142 415.016 413.142 414.93C413.142 414.843 413.142 414.756 413.142 414.668C413.142 414.581 413.142 414.493 413.142 414.405C413.142 414.317 413.142 414.229 413.142 414.14C413.142 414.052 413.142 413.963 413.142 413.873C413.142 413.784 413.142 413.695 413.142 413.605C413.142 413.515 413.142 413.425 413.142 413.334C413.142 413.244 413.142 413.153 413.142 413.062C413.142 412.97 413.142 412.879 413.142 412.787C413.142 412.696 413.142 412.603 413.142 412.511C413.142 412.419 413.142 412.326 413.142 412.233C413.142 412.14 413.142 412.047 413.142 411.953C413.142 411.86 413.142 411.766 413.142 411.672C413.142 411.578 413.142 411.483 413.142 411.388C413.142 411.294 413.142 411.198 413.142 411.103C413.142 411.008 413.142 410.912 413.142 410.816C413.142 410.72 413.142 410.624 413.142 410.527C413.142 410.431 413.142 410.334 413.142 410.237C413.142 410.14 413.142 410.042 413.142 409.944C413.142 409.847 413.142 409.749 413.142 409.65C413.142 409.552 413.142 409.453 413.142 409.354C413.142 409.255 413.142 409.156 413.142 409.057C413.142 408.957 413.142 408.857 413.142 408.757C413.142 408.657 413.142 408.557 413.142 408.456C413.142 408.355 413.142 408.255 413.142 408.153C413.142 408.052 413.142 407.951 413.142 407.849C413.142 407.747 413.142 407.645 413.142 407.542C413.142 407.44 413.142 407.337 413.142 407.234C413.142 407.131 413.142 407.028 413.142 406.925C413.142 406.821 413.142 406.717 413.142 406.613C413.142 406.509 413.142 406.405 413.142 406.3C413.142 406.195 413.142 406.091 413.142 405.985C413.142 405.88 413.142 405.775 413.142 405.669C413.142 405.563 413.142 405.457 413.142 405.351C413.142 405.244 413.142 405.138 413.142 405.031C413.142 404.924 413.142 404.817 413.142 404.71C413.142 404.602 413.142 404.494 413.142 404.387C413.142 404.279 413.142 404.17 413.142 404.062C413.142 403.953 413.142 403.845 413.142 403.735C413.142 403.626 413.142 403.517 413.142 403.407C413.142 403.298 413.142 403.188 413.142 403.078C413.142 402.968 413.142 402.857 413.142 402.747C413.142 402.636 413.142 402.525 413.142 402.414C413.142 402.303 413.142 402.191 413.142 402.079C413.142 401.968 413.142 401.856 413.142 401.744C413.142 401.631 413.142 401.519 413.142 401.406C413.142 401.293 413.142 401.18 413.142 401.067C413.142 400.954 413.142 400.84 413.142 400.726C413.142 400.612 413.142 400.498 413.142 400.384C413.142 400.27 413.142 400.155 413.142 400.04C413.142 399.925 413.142 399.81 413.142 399.695C413.142 399.579 413.142 399.464 413.142 399.348C413.142 399.232 413.142 399.116 413.142 398.999C413.142 398.883 413.142 398.766 413.142 398.649C413.142 398.533 413.142 398.415 413.142 398.298C413.142 398.181 413.142 398.063 413.142 397.945C413.142 397.827 413.142 397.709 413.142 397.591C413.142 397.472 413.142 397.354 413.142 397.235C413.142 397.116 413.142 396.997 413.142 396.877C413.142 396.758 413.142 396.638 413.142 396.518C413.142 396.398 413.142 396.278 413.142 396.158C413.142 396.037 413.142 395.917 413.142 395.796C413.142 395.675 413.142 395.554 413.142 395.433C413.142 395.311 413.142 395.19 413.142 395.068C413.142 394.946 413.142 394.824 413.142 394.702C413.142 394.579 413.142 394.457 413.142 394.334C413.142 394.211 413.142 394.088 413.142 393.965C413.142 393.842 413.142 393.718 413.142 393.594C413.142 393.471 413.142 393.347 413.142 393.222C413.142 393.098 413.142 392.974 413.142 392.849C413.142 392.724 413.142 392.6 413.142 392.474C413.142 392.349 413.142 392.224 413.142 392.098C413.142 391.973 413.142 391.847 413.142 391.721C413.142 391.595 413.142 391.468 413.142 391.342C413.142 391.215 413.142 391.089 413.142 390.962C413.142 390.835 413.142 390.707 413.142 390.58C413.142 390.453 413.142 390.325 413.142 390.197C413.142 390.069 413.142 389.941 413.142 389.813C413.142 389.684 413.142 389.556 413.142 389.427C413.142 389.298 413.142 389.169 413.142 389.04C413.142 388.911 413.142 388.781 413.142 388.652C413.142 388.522 413.142 388.392 413.142 388.262C413.142 388.132 413.142 388.002 413.142 387.871C413.142 387.741 413.142 387.61 413.142 387.479C413.142 387.348 413.142 387.217 413.142 387.085C413.142 386.954 413.142 386.822 413.142 386.69C413.142 386.558 413.142 386.426 413.142 386.294C413.142 386.162 413.142 386.029 413.142 385.897C413.142 385.764 413.142 385.631 413.142 385.498C413.142 385.365 413.142 385.232 413.142 385.098C413.142 384.965 413.142 384.831 413.142 384.697C413.142 384.563 413.142 384.429 413.142 384.294C413.142 384.16 413.142 384.025 413.142 383.891C413.142 383.756 413.142 383.621 413.142 383.486C413.142 383.35 413.142 383.215 413.142 383.079C413.142 382.944 413.142 382.808 413.142 382.672C413.142 382.536 413.142 382.4 413.142 382.263C413.142 382.127 413.142 381.99 413.142 381.854C413.142 381.717 413.142 381.58 413.142 381.443C413.142 381.305 413.142 381.168 413.142 381.03C413.142 380.893 413.142 380.755 413.142 380.617C413.142 380.479 413.142 380.341 413.142 380.202C413.142 380.064 413.142 379.925 413.142 379.787C413.142 379.648 413.142 379.509 413.142 379.37C413.142 379.231 413.142 379.091 413.142 378.952C413.142 378.812 413.142 378.672 413.142 378.532C413.142 378.393 413.142 378.252 413.142 378.112C413.142 377.972 413.142 377.831 413.142 377.691C413.142 377.55 413.142 377.409 413.142 377.268C413.142 377.127 413.142 376.986 413.142 376.844C413.142 376.703 413.142 376.561 413.142 376.419C413.142 376.278 413.142 376.136 413.142 375.993C413.142 375.851 413.142 375.709 413.142 375.566C413.142 375.424 413.142 375.281 413.142 375.138C413.142 374.995 413.142 374.852 413.142 374.709C413.142 374.566 413.142 374.422 413.142 374.279C413.142 374.135 413.142 373.991 413.142 373.847C413.142 373.703 413.142 373.559 413.142 373.415C413.142 373.271 413.142 373.126 413.142 372.981C413.142 372.837 413.142 372.692 413.142 372.547C413.142 372.402 413.142 372.257 413.142 372.111C413.142 371.966 413.142 371.82 413.142 371.675C413.142 371.529 413.142 371.383 413.142 371.237C413.142 371.091 413.142 370.945 413.142 370.798C413.142 370.652 413.142 370.505 413.142 370.359C413.142 370.212 413.142 370.065 413.142 369.918C413.142 369.771 413.142 369.624 413.142 369.476C413.142 369.329 413.142 369.181 413.142 369.034C413.142 368.886 413.142 368.738 413.142 368.59C413.142 368.442 413.142 368.294 413.142 368.145C413.142 367.997 413.142 367.849 413.142 367.7C413.142 367.551 413.142 367.402 413.142 367.253C413.142 367.104 413.142 366.955 413.142 366.806C413.142 366.656 413.142 366.507 413.142 366.357C413.142 366.208 413.142 366.058 413.142 365.908C413.142 365.758 413.142 365.608 413.142 365.458C413.142 365.307 413.142 365.157 413.142 365.006C413.142 364.856 413.142 364.705 413.142 364.554C413.142 364.403 413.142 364.252 413.142 364.101C413.142 363.95 413.142 363.799 413.142 363.647C413.142 363.496 413.142 363.344 413.142 363.192C413.142 363.04 413.142 362.888 413.142 362.736C413.142 362.584 413.142 362.432 413.142 362.28C413.142 362.127 413.142 361.975 413.142 361.822C413.142 361.67 413.142 361.517 413.142 361.364C413.142 361.211 413.142 361.058 413.142 360.905C413.142 360.751 413.142 360.598 413.142 360.444C413.142 360.291 413.142 360.137 413.142 359.983C413.142 359.83 413.142 359.676 413.142 359.522C413.142 359.368 413.142 359.213 413.142 359.059C413.142 358.905 413.142 358.75 413.142 358.596C413.142 358.441 413.142 358.286 413.142 358.131C413.142 357.976 413.142 357.821 413.142 357.666C413.142 357.511 413.142 357.356 413.142 357.2C413.142 357.045 413.142 356.889 413.142 356.734C413.142 356.578 413.142 356.422 413.142 356.266C413.142 356.11 413.142 355.954 413.142 355.798C413.142 355.642 413.142 355.485 413.142 355.329C413.142 355.172 413.142 355.016 413.142 354.859C413.142 354.702 413.142 354.545 413.142 354.388C413.142 354.232 413.142 354.074 413.142 353.917C413.142 353.76 413.142 353.603 413.142 353.445C413.142 353.288 413.142 353.13 413.142 352.972C413.142 352.815 413.142 352.657 413.142 352.499C413.142 352.341 413.142 352.183 413.142 352.025C413.142 351.866 413.142 351.708 413.142 351.55C413.142 351.391 413.142 351.233 413.142 351.074C413.142 350.915 413.142 350.756 413.142 350.598C413.142 350.439 413.142 350.28 413.142 350.12C413.142 349.961 413.142 349.802 413.142 349.643C413.142 349.483 413.142 349.324 413.142 349.164C413.142 349.005 413.142 348.845 413.142 348.685C413.142 348.525 413.142 348.365 413.142 348.205C413.142 348.045 413.142 347.885 413.142 347.725C413.142 347.565 413.142 347.404 413.142 347.244C413.142 347.083 413.142 346.923 413.142 346.762C413.142 346.601 413.142 346.441 413.142 346.28C413.142 346.119 413.142 345.958 413.142 345.797C413.142 345.635 413.142 345.474 413.142 345.313C413.142 345.152 413.142 344.99 413.142 344.829C413.142 344.667 413.142 344.506 413.142 344.344C413.142 344.182 413.142 344.02 413.142 343.858C413.142 343.696 413.142 343.534 413.142 343.372C413.142 343.21 413.142 343.048 413.142 342.886C413.142 342.723 413.142 342.561 413.142 342.398C413.142 342.236 413.142 342.073 413.142 341.911C413.142 341.748 413.142 341.585 413.142 341.422C413.142 341.259 413.142 341.096 413.142 340.933C413.142 340.77 413.142 340.607 413.142 340.444C413.142 340.281 413.142 340.117 413.142 339.954C413.142 339.79 413.142 339.627 413.142 339.463C413.142 339.3 413.142 339.136 413.142 338.972C413.142 338.808 413.142 338.645 413.142 338.481C413.142 338.317 413.142 338.153 413.142 337.988C413.142 337.824 413.142 337.66 413.142 337.496C413.142 337.332 413.142 337.167 413.142 337.003C413.142 336.838 413.142 336.674 413.142 336.509C413.142 336.344 413.142 336.18 413.142 336.015C413.142 335.85 413.142 335.685 413.142 335.52C413.142 335.355 413.142 335.19 413.142 335.025C413.142 334.86 413.142 334.695 413.142 334.53C413.142 334.364 413.142 334.199 413.142 334.034C413.142 333.868 413.142 333.703 413.142 333.537C413.142 333.372 413.142 333.206 413.142 333.04C413.142 332.875 413.142 332.709 413.142 332.543C413.142 332.377 413.142 332.211 413.142 332.045C413.142 331.879 413.142 331.713 413.142 331.547C413.142 331.381 413.142 331.215 413.142 331.049C413.142 330.882 413.142 330.716 413.142 330.55C413.142 330.383 413.142 330.217 413.142 330.05C413.142 329.884 413.142 329.717 413.142 329.55C413.142 329.384 413.142 329.217 413.142 329.05C413.142 328.883 413.142 328.716 413.142 328.55C413.142 328.383 413.142 328.216 413.142 328.049C413.142 327.882 413.142 327.715 413.142 327.547C413.142 327.38 413.142 327.213 413.142 327.046C413.142 326.878 413.142 326.711 413.142 326.544C413.142 326.376 413.142 326.209 413.142 326.041C413.142 325.874 413.142 325.706 413.142 325.539C413.142 325.371 413.142 325.203 413.142 325.036C413.142 324.868 413.142 324.7 413.142 324.532C413.142 324.365 413.142 324.197 413.142 324.029C413.142 323.861 413.142 323.693 413.142 323.525C413.142 323.357 413.142 323.189 413.142 323.02C413.142 322.852 413.142 322.684 413.142 322.516C413.142 322.348 413.142 322.179 413.142 322.011C413.142 321.843 413.142 321.674 413.142 321.506C413.142 321.338 413.142 321.169 413.142 321.001C413.142 320.832 413.142 320.664 413.142 320.495C413.142 320.326 413.142 320.158 413.142 319.989C413.142 319.82 413.142 319.652 413.142 319.483C413.142 319.314 413.142 319.145 413.142 318.977C413.142 318.808 413.142 318.639 413.142 318.47C413.142 318.301 413.142 318.132 413.142 317.963C413.142 317.794 413.142 317.625 413.142 317.456C413.142 317.287 413.142 317.118 413.142 316.949C413.142 316.78 413.142 316.61 413.142 316.441C413.142 316.272 413.142 316.103 413.142 315.933C413.142 315.764 413.142 315.595 413.142 315.426C413.142 315.256 413.142 315.087 413.142 314.918C413.142 314.748 413.142 314.579 413.142 314.409C413.142 314.24 413.142 314.07 413.142 313.901C413.142 313.731 413.142 313.562 413.142 313.392C413.142 313.223 413.142 313.053 413.142 312.884C413.142 312.714 413.142 312.544 413.142 312.375C413.142 312.205 413.142 312.035 413.142 311.866C413.142 311.696 413.142 311.526 413.142 311.356C413.142 311.187 413.142 311.017 413.142 310.847C413.142 310.677 413.142 310.508 413.142 310.338C413.142 310.168 413.142 309.998 413.142 309.828C413.142 309.658 413.142 309.488 413.142 309.319C413.142 309.149 413.142 308.979 413.142 308.809C413.142 308.639 413.142 308.469 413.142 308.299C413.142 308.129 413.142 307.959 413.142 307.789C413.142 307.619 413.142 307.449 413.142 307.279C413.142 307.109 413.142 306.939 413.142 306.769C413.142 306.599 413.142 306.429 413.142 306.259C413.142 306.089 413.142 305.919 413.142 305.749C413.142 305.579 413.142 305.409 413.142 305.239C413.142 305.069 413.142 304.898 413.142 304.728C413.142 304.558 413.142 304.388 413.142 304.218C413.142 304.048 413.142 303.878 413.142 303.708C413.142 303.538 413.142 303.368 413.142 303.197C413.142 303.027 413.142 302.857 413.142 302.687C413.142 302.517 413.142 302.347 413.142 302.177C413.142 302.007 413.142 301.836 413.142 301.666C413.142 301.496 413.142 301.326 413.142 301.156C413.142 300.986 413.142 300.816 413.142 300.646C413.142 300.476 413.142 300.305 413.142 300.135C413.142 299.965 413.142 299.795 413.142 299.625C413.142 299.455 413.142 299.285 413.142 299.115C413.142 298.945 413.142 298.775 413.142 298.605C413.142 298.435 413.142 298.265 413.142 298.095C413.142 297.925 413.142 297.755 413.142 297.585C413.142 297.414 413.142 297.244 413.142 297.075C413.142 296.905 413.142 296.735 413.142 296.565C413.142 296.395 413.142 296.225 413.142 296.055C413.142 295.885 413.142 295.715 413.142 295.545C413.142 295.375 413.142 295.205 413.142 295.035C413.142 294.865 413.142 294.696 413.142 294.526C413.142 294.356 413.142 294.186 413.142 294.016C413.142 293.846 413.142 293.677 413.142 293.507C413.142 293.337 413.142 293.167 413.142 292.998C413.142 292.828 413.142 292.658 413.142 292.489C413.142 292.319 413.142 292.149 413.142 291.98C413.142 291.81 413.142 291.64 413.142 291.471C413.142 291.301 413.142 291.132 413.142 290.962C413.142 290.793 413.142 290.623 413.142 290.454C413.142 290.284 413.142 290.115 413.142 289.945C413.142 289.776 413.142 289.607 413.142 289.437C413.142 289.268 413.142 289.099 413.142 288.929C413.142 288.76 413.142 288.591 413.142 288.422C413.142 288.252 413.142 288.083 413.142 287.914C413.142 287.745 413.142 287.576 413.142 287.407C413.142 287.238 413.142 287.069 413.142 286.9C413.142 286.731 413.142 286.562 413.142 286.393C413.142 286.224 413.142 286.055 413.142 285.886C413.142 285.717 413.142 285.548 413.142 285.379C413.142 285.211 413.142 285.042 413.142 284.873C413.142 284.704 413.142 284.536 413.142 284.367C413.142 284.199 413.142 284.03 413.142 283.861C413.142 283.693 413.142 283.524 413.142 283.356C413.142 283.188 413.142 283.019 413.142 282.851C413.142 282.682 413.142 282.514 413.142 282.346C413.142 282.178 413.142 282.009 413.142 281.841C413.142 281.673 413.142 281.505 413.142 281.337C413.142 281.169 413.142 281.001 413.142 280.833C413.142 280.665 413.142 280.497 413.142 280.329C413.142 280.161 413.142 279.993 413.142 279.826C413.142 279.658 413.142 279.49 413.142 279.322C413.142 279.155 413.142 278.987 413.142 278.82C413.142 278.652 413.142 278.485 413.142 278.317C413.142 278.15 413.142 277.982 413.142 277.815C413.142 277.648 413.142 277.48 413.142 277.313C413.142 277.146 413.142 276.979 413.142 276.812C413.142 276.645 413.142 276.478 413.142 276.311C413.142 276.144 413.142 275.977 413.142 275.81C413.142 275.643 413.142 275.476 413.142 275.31C413.142 275.143 413.142 274.976 413.142 274.81C413.142 274.643 413.142 274.477 413.142 274.31C413.142 274.144 413.142 273.977 413.142 273.811C413.142 273.645 413.142 273.479 413.142 273.312C413.142 273.146 413.142 272.98 413.142 272.814C413.142 272.648 413.142 272.482 413.142 272.316C413.142 272.15 413.142 271.984 413.142 271.819C413.142 271.653 413.142 271.487 413.142 271.322C413.142 271.156 413.142 270.99 413.142 270.825C413.142 270.66 413.142 270.494 413.142 270.329C413.142 270.164 413.142 269.998 413.142 269.833C413.142 269.668 413.142 269.503 413.142 269.338C413.142 269.173 413.142 269.008 413.142 268.843C413.142 268.678 413.142 268.514 413.142 268.349C413.142 268.184 413.142 268.02 413.142 267.855C413.142 267.691 413.142 267.526 413.142 267.362C413.142 267.197 413.142 267.033 413.142 266.869C413.142 266.705 413.142 266.541 413.142 266.377C413.142 266.213 413.142 266.049 413.142 265.885C413.142 265.721 413.142 265.557 413.142 265.394C413.142 265.23 413.142 265.066 413.142 264.903C413.142 264.739 413.142 264.576 413.142 264.413C413.142 264.249 413.142 264.086 413.142 263.923C413.142 263.76 413.142 263.597 413.142 263.434C413.142 263.271 413.142 263.108 413.142 262.945C413.142 262.782 413.142 262.62 413.142 262.457C413.142 262.295 413.142 262.132 413.142 261.97C413.142 261.807 413.142 261.645 413.142 261.483C413.142 261.321 413.142 261.159 413.142 260.997C413.142 260.835 413.142 260.673 413.142 260.511C413.142 260.349 413.142 260.187 413.142 260.026C413.142 259.864 413.142 259.703 413.142 259.541C413.142 259.38 413.142 259.219 413.142 259.058C413.142 258.896 413.142 258.735 413.142 258.574C413.142 258.413 413.142 258.252 413.142 258.092C413.142 257.931 413.142 257.77 413.142 257.61C413.142 257.449 413.142 257.289 413.142 257.128C413.142 256.968 413.142 256.808 413.142 256.648C413.142 256.488 413.142 256.328 413.142 256.168C413.142 256.008 413.142 255.848 413.142 255.688C413.142 255.529 413.142 255.369 413.142 255.21C413.142 255.05 413.142 254.891 413.142 254.732C413.142 254.572 413.142 254.413 413.142 254.254C413.142 254.095 413.142 253.936 413.142 253.778C413.142 253.619 413.142 253.46 413.142 253.302C413.142 253.143 413.142 252.985 413.142 252.826C413.142 252.668 413.142 252.51 413.142 252.352C413.142 252.194 413.142 252.036 413.142 251.878C413.142 251.72 413.142 251.563 413.142 251.405C413.142 251.248 413.142 251.09 413.142 250.933C413.142 250.775 413.142 250.618 413.142 250.461C413.142 250.304 413.142 250.147 413.142 249.99C413.142 249.834 413.142 249.677 413.142 249.52C413.142 249.364 413.142 249.207 413.142 249.051C413.142 248.895 413.142 248.738 413.142 248.582C413.142 248.426 413.142 248.27 413.142 248.115C413.142 247.959 413.142 247.803 413.142 247.648C413.142 247.492 413.142 247.337 413.142 247.182C413.142 247.026 413.142 246.871 413.142 246.716C413.142 246.561 413.142 246.406 413.142 246.252C413.142 246.097 413.142 245.942 413.142 245.788C413.142 245.633 413.142 245.479 413.142 245.325C413.142 245.171 413.142 245.017 413.142 244.863C413.142 244.709 413.142 244.555 413.142 244.402C413.142 244.248 413.142 244.094 413.142 243.941C413.142 243.788 413.142 243.635 413.142 243.482C413.142 243.328 413.142 243.176 413.142 243.023C413.142 242.87 413.142 242.717 413.142 242.565C413.142 242.412 413.142 242.26 413.142 242.108C413.142 241.956 413.142 241.804 413.142 241.652C413.142 241.5 413.142 241.348 413.142 241.197C413.142 241.045 413.142 240.894 413.142 240.742C413.142 240.591 413.142 240.44 413.142 240.289C413.142 240.138 413.142 239.987 413.142 239.836C413.142 239.686 413.142 239.535 413.142 239.385C413.142 239.234 413.142 239.084 413.142 238.934C413.142 238.784 413.142 238.634 413.142 238.484C413.142 238.335 413.142 238.185 413.142 238.036C413.142 237.886 413.142 237.737 413.142 237.588C413.142 237.439 413.142 237.29 413.142 237.141C413.142 236.992 413.142 236.843 413.142 236.695C413.142 236.546 413.142 236.398 413.142 236.25H378.142ZM246.624 71.3906C234.262 83.7771 234.26 83.7753 234.259 83.774C234.259 83.7743 234.258 83.7736 234.259 83.7741C234.26 83.7752 234.263 83.7783 234.268 83.7835C234.279 83.7939 234.297 83.8125 234.324 83.8391C234.377 83.8925 234.462 83.9783 234.578 84.0957C234.811 84.3303 235.166 84.691 235.634 85.1706C236.571 86.1299 237.959 87.5639 239.716 89.4162C243.231 93.1231 248.211 98.492 254.004 105.072C265.639 118.29 280.326 136.14 292.997 155.071C305.895 174.339 315.678 193.234 318.998 208.743C320.625 216.34 320.46 222.055 319.249 226.205C318.152 229.962 315.959 233.352 311.402 236.401L330.865 265.49C342.083 257.985 349.391 247.848 352.846 236.014C356.187 224.572 355.624 212.631 353.223 201.416C348.488 179.3 335.7 155.945 322.083 135.602C308.24 114.921 292.469 95.7981 280.275 81.9461C274.153 74.9915 268.875 69.301 265.112 65.3324C263.229 63.3469 261.722 61.7891 260.674 60.716C260.15 60.1794 259.74 59.7637 259.456 59.4761C259.313 59.3323 259.202 59.2205 259.123 59.1415C259.084 59.102 259.053 59.0708 259.03 59.0478C259.019 59.0364 259.009 59.027 259.002 59.0197C258.998 59.0161 258.994 59.0122 258.993 59.0104C258.989 59.007 258.986 59.0041 246.624 71.3906ZM311.402 236.401C300.188 243.904 292.884 254.04 289.435 265.873C286.099 277.312 286.666 289.25 289.068 300.462C293.805 322.573 306.59 345.928 320.203 366.273C334.042 386.955 349.807 406.081 361.997 419.936C368.116 426.892 373.392 432.584 377.154 436.553C379.036 438.539 380.542 440.097 381.59 441.171C382.114 441.707 382.523 442.123 382.808 442.411C382.95 442.555 383.061 442.666 383.139 442.745C383.179 442.785 383.21 442.816 383.233 442.839C383.244 442.851 383.254 442.86 383.261 442.867C383.265 442.871 383.268 442.875 383.27 442.877C383.274 442.88 383.277 442.883 395.643 430.5C408.009 418.118 408.011 418.12 408.012 418.121C408.012 418.121 408.013 418.122 408.012 418.121C408.011 418.12 408.008 418.117 408.003 418.112C407.993 418.101 407.974 418.083 407.947 418.056C407.894 418.003 407.809 417.917 407.693 417.799C407.461 417.565 407.105 417.204 406.637 416.724C405.701 415.765 404.313 414.33 402.557 412.477C399.043 408.769 394.065 403.399 388.274 396.817C376.643 383.596 361.96 365.742 349.292 346.809C336.397 327.538 326.614 308.64 323.291 293.13C321.663 285.532 321.826 279.817 323.036 275.67C324.13 271.916 326.319 268.532 330.865 265.49L311.402 236.401ZM120.541 155.753C113.402 171.731 113.399 171.729 113.397 171.728C113.396 171.728 113.394 171.727 113.394 171.727C113.393 171.727 113.395 171.727 113.398 171.729C113.405 171.732 113.42 171.739 113.444 171.749C113.49 171.77 113.569 171.806 113.679 171.856C113.899 171.956 114.243 172.114 114.704 172.329C115.627 172.758 117.014 173.412 118.799 174.28C122.372 176.017 127.526 178.604 133.733 181.948C146.186 188.657 162.678 198.31 179.065 210.154C195.549 222.067 211.324 235.769 222.83 250.435C234.398 265.18 240.591 279.524 240.591 293.126H275.591C275.591 268.77 264.591 246.962 250.368 228.832C236.083 210.624 217.471 194.727 199.567 181.787C181.567 168.777 163.671 158.321 150.334 151.135C143.645 147.531 138.053 144.724 134.103 142.803C132.127 141.843 130.559 141.102 129.467 140.594C128.92 140.34 128.493 140.144 128.192 140.007C128.042 139.938 127.923 139.885 127.837 139.846C127.794 139.827 127.76 139.811 127.733 139.799C127.72 139.793 127.709 139.788 127.7 139.784C127.696 139.782 127.69 139.78 127.688 139.779C127.684 139.777 127.679 139.775 120.541 155.753ZM240.591 293.126C240.591 330.537 250.006 359.758 265.028 382.262C279.976 404.655 299.78 419.363 319.048 428.985C338.248 438.573 357.236 443.279 371.276 445.616C378.337 446.791 384.26 447.386 388.486 447.687C390.602 447.838 392.301 447.916 393.515 447.957C394.122 447.977 394.608 447.988 394.965 447.993C395.144 447.996 395.29 447.998 395.403 447.999C395.46 447.999 395.508 448 395.548 448C395.568 448 395.585 448 395.601 448C395.609 448 395.619 448 395.623 448C395.633 448 395.642 448 395.642 430.5C395.642 413 395.65 413 395.657 413C395.659 413 395.666 413 395.67 413C395.677 413 395.682 413 395.685 413C395.692 413 395.69 413 395.681 413C395.661 413 395.61 412.999 395.529 412.998C395.365 412.995 395.079 412.989 394.679 412.976C393.878 412.949 392.622 412.893 390.976 412.776C387.68 412.541 382.857 412.062 377.023 411.091C365.272 409.135 349.872 405.256 334.685 397.672C319.565 390.122 304.981 379.073 294.139 362.83C283.37 346.697 275.591 324.403 275.591 293.126H240.591ZM378.142 430.5V622H413.142V430.5H378.142ZM395.642 430.5C382.34 441.871 382.345 441.878 382.351 441.884C382.353 441.887 382.358 441.893 382.363 441.898C382.371 441.908 382.381 441.92 382.392 441.932C382.413 441.957 382.438 441.986 382.468 442.02C382.526 442.087 382.6 442.172 382.69 442.275C382.871 442.479 383.114 442.753 383.42 443.091C384.033 443.766 384.898 444.7 386.014 445.854C388.243 448.16 391.477 451.354 395.696 455.138C404.126 462.696 416.541 472.655 432.787 482.588C465.307 502.474 513.345 522.35 575.314 522.432L575.36 487.432C521.133 487.361 479.324 470.02 451.045 452.729C436.891 444.073 426.17 435.453 419.062 429.079C415.512 425.896 412.878 423.286 411.181 421.53C410.332 420.653 409.72 419.99 409.346 419.577C409.159 419.371 409.031 419.228 408.964 419.151C408.931 419.113 408.912 419.092 408.909 419.088C408.907 419.086 408.909 419.088 408.915 419.095C408.918 419.098 408.921 419.103 408.926 419.108C408.929 419.111 408.933 419.116 408.934 419.118C408.939 419.123 408.943 419.128 395.642 430.5ZM575.314 522.432C629.54 522.504 671.35 539.844 699.628 557.136C713.782 565.791 724.504 574.412 731.612 580.785C735.161 583.968 737.796 586.578 739.493 588.334C740.341 589.211 740.954 589.874 741.328 590.287C741.515 590.493 741.642 590.636 741.709 590.713C741.743 590.751 741.762 590.772 741.765 590.776C741.767 590.778 741.765 590.776 741.759 590.769C741.756 590.766 741.752 590.761 741.747 590.756C741.745 590.753 741.741 590.748 741.74 590.747C741.735 590.741 741.73 590.736 755.032 579.364C768.334 567.993 768.329 567.987 768.323 567.98C768.321 567.978 768.315 567.971 768.311 567.966C768.302 567.956 768.292 567.944 768.282 567.932C768.26 567.907 768.235 567.878 768.206 567.844C768.148 567.777 768.073 567.692 767.983 567.59C767.803 567.385 767.56 567.111 767.253 566.773C766.64 566.098 765.775 565.164 764.66 564.011C762.431 561.704 759.197 558.51 754.978 554.727C746.548 547.168 734.132 537.21 717.887 527.276C685.367 507.39 637.329 487.514 575.36 487.432L575.314 522.432ZM36.2538 281.637C35.4303 299.117 35.427 299.117 35.4242 299.117C35.424 299.117 35.4218 299.117 35.4214 299.117C35.4206 299.117 35.422 299.117 35.4256 299.117C35.4327 299.117 35.4485 299.118 35.4728 299.119C35.5214 299.122 35.6042 299.126 35.7201 299.132C35.952 299.145 36.3165 299.166 36.8058 299.196C37.7846 299.257 39.2617 299.357 41.1753 299.508C45.0046 299.811 50.5687 300.319 57.3748 301.136C71.0271 302.774 89.48 305.629 108.863 310.479C128.339 315.353 148.15 322.094 164.831 331.258C181.626 340.484 193.903 351.422 200.373 364.049L231.522 348.088C220.673 326.915 201.829 311.649 181.683 300.582C161.424 289.453 138.477 281.811 117.359 276.526C96.1488 271.219 76.173 268.141 61.5449 266.385C54.2109 265.505 48.1719 264.952 43.9333 264.617C41.8128 264.449 40.1396 264.336 38.9767 264.264C38.3952 264.227 37.9409 264.201 37.6218 264.184C37.4622 264.175 37.3364 264.169 37.2453 264.164C37.1998 264.162 37.1629 264.16 37.1348 264.159C37.1208 264.158 37.109 264.158 37.0994 264.157C37.0946 264.157 37.089 264.157 37.0866 264.156C37.0816 264.156 37.0772 264.156 36.2538 281.637ZM200.373 364.049C238.572 438.595 288.9 461.395 331.89 462.875C352.606 463.589 370.574 459.317 383.262 454.959C389.64 452.768 394.791 450.518 398.42 448.774C400.238 447.9 401.684 447.149 402.721 446.589C403.24 446.308 403.658 446.075 403.97 445.898C404.126 445.81 404.255 445.735 404.358 445.675C404.409 445.646 404.454 445.619 404.492 445.597C404.511 445.586 404.528 445.576 404.543 445.567C404.551 445.562 404.561 445.556 404.565 445.554C404.575 445.548 404.585 445.542 395.642 430.5C386.699 415.458 386.707 415.452 386.715 415.448C386.718 415.446 386.726 415.442 386.73 415.439C386.739 415.434 386.746 415.429 386.752 415.426C386.763 415.419 386.769 415.416 386.767 415.417C386.765 415.418 386.738 415.434 386.687 415.463C386.584 415.522 386.383 415.634 386.09 415.792C385.503 416.109 384.549 416.608 383.261 417.227C380.678 418.468 376.797 420.172 371.89 421.858C362.009 425.252 348.403 428.423 333.095 427.896C304.036 426.895 264.517 412.479 231.522 348.088L200.373 364.049ZM378.143 430.5L378.142 587L413.142 587L413.143 430.501L378.143 430.5ZM379.057 592.586L439.682 772.586L472.851 761.414L412.226 581.414L379.057 592.586ZM379.121 581.229L316.246 761.229L349.288 772.771L412.163 592.771L379.121 581.229ZM378.142 430.5L378.142 485L413.142 485L413.142 430.5L378.142 430.5ZM456.267 749.5H332.767V784.5H456.267V749.5Z" fill="#FF0000"/>
<path d="M395.142 15C419.782 15 444.168 28.7526 463.59 44.4238C472.899 51.9355 480.564 59.48 485.949 65.2129C480.538 70.6513 472.895 77.7588 463.644 84.8379C444.138 99.7639 419.527 113 394.642 113C369.83 113 345.88 99.8259 327.068 84.9766C318.066 77.8706 310.691 70.7345 305.512 65.3018C310.763 59.5551 318.315 51.9287 327.55 44.3369C346.557 28.7115 370.548 15 395.142 15Z" stroke="#FF0000" stroke-width="30"/>
<circle cx="395.142" cy="482.5" r="53.5" fill="#FF0000"/>
</svg>
