<svg width="351" height="442" viewBox="0 0 351 442" fill="none" xmlns="http://www.w3.org/2000/svg">
<g filter="url(#filter0_d_945_2079)">
<path d="M175.61 242.017C193.19 239.485 191.963 226.466 191.963 216.874C191.963 201.542 175.61 173.128 175.61 173.128C175.61 173.128 157.621 203.178 158.847 216.874C159.883 228.434 158.847 240.873 175.61 242.017ZM175.61 242.017C175.61 242.017 212.405 234.355 240.002 225.051M175.61 242.017C175.61 242.017 138.201 237.422 110.604 228.321" stroke="#FF0000" stroke-width="15" stroke-miterlimit="10" stroke-linecap="round" stroke-linejoin="round"/>
<path d="M175.406 264.095C253.521 304.775 284.566 431.311 284.566 431.311C284.566 431.311 257.296 277.52 240.207 226.073M175.406 264.095C144.334 247.914 141.676 246.106 110.196 226.073M175.406 264.095C96.9268 305.388 65.0189 431.311 65.0189 431.311C65.0189 431.311 93.1066 277.52 110.196 226.073M175.406 264.095C207.908 246.993 209.748 245.697 240.207 226.073M240.207 226.073C284.593 193.79 330.56 136.946 330.56 136.946C330.56 136.946 253.841 136.946 195.643 162.703C168.976 174.505 122.143 202.974 110.196 226.073M240.207 226.073C232.301 200.721 217.643 155.049 211.937 136.946C195.658 86.7528 175.406 24.3105 175.406 24.3105C175.406 24.3105 153.974 90.3913 137.482 141.239C131.668 159.341 118.102 200.721 110.196 226.073M240.207 226.073C213.331 192.438 184.4 176.979 154.759 162.703C110.196 141.239 20.251 136.946 20.251 136.946C20.251 136.946 65.8097 193.79 110.196 226.073" stroke="#FF0000" stroke-width="15"/>
</g>
<defs>
<filter id="filter0_d_945_2079" x="0" y="0" width="350.271" height="441.155" filterUnits="userSpaceOnUse" color-interpolation-filters="sRGB">
<feFlood flood-opacity="0" result="BackgroundImageFix"/>
<feColorMatrix in="SourceAlpha" type="matrix" values="0 0 0 0 0 0 0 0 0 0 0 0 0 0 0 0 0 0 127 0" result="hardAlpha"/>
<feOffset dy="4"/>
<feGaussianBlur stdDeviation="2"/>
<feComposite in2="hardAlpha" operator="out"/>
<feColorMatrix type="matrix" values="0 0 0 0 0 0 0 0 0 0 0 0 0 0 0 0 0 0 0.25 0"/>
<feBlend mode="normal" in2="BackgroundImageFix" result="effect1_dropShadow_945_2079"/>
<feBlend mode="normal" in="SourceGraphic" in2="effect1_dropShadow_945_2079" result="shape"/>
</filter>
</defs>
</svg>
