<svg width="497" height="950" viewBox="0 0 497 950" fill="none" xmlns="http://www.w3.org/2000/svg">
<path d="M248.184 873.707L285.66 911.184L248.184 948.66L210.707 911.184L248.184 873.707Z" fill="#D9D9D9"/>
<path d="M248.184 873.707L285.66 911.184L248.184 948.66L210.707 911.184L248.184 873.707Z" fill="#FF0000"/>
<path d="M248.184 873.707L285.66 911.184L248.184 948.66L210.707 911.184L248.184 873.707Z" stroke="#FF0000"/>
<path fill-rule="evenodd" clip-rule="evenodd" d="M223 780.5L248 755.5L273 780.5V559V558.355L320.001 605.356L387.422 672.777L426.033 711.388L319.879 817.542L355.235 852.897L461.389 746.744L461.422 746.777L496.777 711.422L422.777 637.422L355.356 570L273 487.644V0H223V488.421L141.421 570L74 637.421L0 711.421L35.3553 746.777L35.3883 746.744L141.607 852.962L176.962 817.607L70.7436 711.388L109.355 672.777L176.777 605.355L223 559.132V780.5Z" fill="white"/>
<path fill-rule="evenodd" clip-rule="evenodd" d="M223 780.5L248 755.5L273 780.5V559V558.355L320.001 605.356L387.422 672.777L426.033 711.388L319.879 817.542L355.235 852.897L461.389 746.744L461.422 746.777L496.777 711.422L422.777 637.422L355.356 570L273 487.644V0H223V488.421L141.421 570L74 637.421L0 711.421L35.3553 746.777L35.3883 746.744L141.607 852.962L176.962 817.607L70.7436 711.388L109.355 672.777L176.777 605.355L223 559.132V780.5Z" fill="#FF0000"/>
</svg>
