<svg width="262" height="436" viewBox="0 0 262 436" fill="none" xmlns="http://www.w3.org/2000/svg">
<line x1="130.636" y1="47.5889" x2="130.636" y2="435.858" stroke="#FF0000" stroke-width="15"/>
<path d="M7.5 0C7.5 37.8042 27.5139 119.416 131.364 119.416C236.996 119.416 254.338 37.8042 254.338 0" stroke="#FF0000" stroke-width="15"/>
<circle cx="130.919" cy="35.8031" r="16.2943" fill="#FF0000" stroke="#FF0000" stroke-width="15"/>
<circle cx="202.302" cy="171.675" r="7.5" fill="#FF0000"/>
<circle cx="202.302" cy="171.675" r="7.5" fill="#FF0000"/>
<circle cx="202.302" cy="171.675" r="7.5" stroke="#FF0000" stroke-width="14.3537"/>
<circle cx="202.302" cy="266.852" r="7.5" fill="#FF0000"/>
<circle cx="202.302" cy="266.852" r="7.5" fill="#FF0000"/>
<circle cx="202.302" cy="266.852" r="7.5" stroke="#FF0000" stroke-width="14.3537"/>
<circle cx="202.302" cy="367.366" r="7.5" fill="#FF0000"/>
<circle cx="202.302" cy="367.366" r="7.5" fill="#FF0000"/>
<circle cx="202.302" cy="367.366" r="7.5" stroke="#FF0000" stroke-width="14.3537"/>
<circle cx="59.5362" cy="266.852" r="7.5" fill="#FF0000"/>
<circle cx="59.5362" cy="266.852" r="7.5" fill="#FF0000"/>
<circle cx="59.5362" cy="266.852" r="7.5" stroke="#FF0000" stroke-width="14.3537"/>
<circle cx="59.5362" cy="367.366" r="7.5" fill="#FF0000"/>
<circle cx="59.5362" cy="367.366" r="7.5" fill="#FF0000"/>
<circle cx="59.5362" cy="367.366" r="7.5" stroke="#FF0000" stroke-width="14.3537"/>
<circle cx="59.5362" cy="175.232" r="7.5" fill="#FF0000"/>
<circle cx="59.5362" cy="175.232" r="7.5" fill="#FF0000"/>
<circle cx="59.5362" cy="175.232" r="7.5" stroke="#FF0000" stroke-width="14.3537"/>
</svg>
