<svg width="262" height="424" viewBox="0 0 262 424" fill="none" xmlns="http://www.w3.org/2000/svg">
<line x1="130.636" y1="35.5801" x2="130.636" y2="423.849" stroke="#FF0000" stroke-width="15"/>
<path d="M7.5 21.3477C7.5 59.1518 27.5139 107.407 131.364 107.407C236.996 107.407 254.115 59.1518 254.115 21.3477" stroke="#FF0000" stroke-width="15"/>
<circle cx="130.919" cy="23.7943" r="16.2943" fill="#FF0000" stroke="#FF0000" stroke-width="15"/>
<circle cx="202.302" cy="159.666" r="7.5" fill="#FF0000"/>
<circle cx="202.302" cy="159.666" r="7.5" fill="#FF0000"/>
<circle cx="202.302" cy="159.666" r="7.5" stroke="#FF0000" stroke-width="14.3537"/>
<circle cx="202.302" cy="254.843" r="7.5" fill="#FF0000"/>
<circle cx="202.302" cy="254.843" r="7.5" fill="#FF0000"/>
<circle cx="202.302" cy="254.843" r="7.5" stroke="#FF0000" stroke-width="14.3537"/>
<circle cx="202.302" cy="355.357" r="7.5" fill="#FF0000"/>
<circle cx="202.302" cy="355.357" r="7.5" fill="#FF0000"/>
<circle cx="202.302" cy="355.357" r="7.5" stroke="#FF0000" stroke-width="14.3537"/>
<circle cx="59.5362" cy="254.843" r="7.5" fill="#FF0000"/>
<circle cx="59.5362" cy="254.843" r="7.5" fill="#FF0000"/>
<circle cx="59.5362" cy="254.843" r="7.5" stroke="#FF0000" stroke-width="14.3537"/>
<circle cx="59.5362" cy="355.357" r="7.5" fill="#FF0000"/>
<circle cx="59.5362" cy="355.357" r="7.5" fill="#FF0000"/>
<circle cx="59.5362" cy="355.357" r="7.5" stroke="#FF0000" stroke-width="14.3537"/>
<circle cx="59.5362" cy="163.224" r="7.5" fill="#FF0000"/>
<circle cx="59.5362" cy="163.224" r="7.5" fill="#FF0000"/>
<circle cx="59.5362" cy="163.224" r="7.5" stroke="#FF0000" stroke-width="14.3537"/>
</svg>
