<svg width="284" height="414" viewBox="0 0 284 414" fill="none" xmlns="http://www.w3.org/2000/svg">
<path d="M112.669 0L112.669 358.198" stroke="#FF0000" stroke-width="15"/>
<path d="M58.1952 87.9551L58.1952 320.73M167.143 87.9551L167.143 320.73" stroke="#FF0000" stroke-width="15"/>
<path d="M207.531 228.523C223.927 228.523 226.743 228.523 243.139 228.523C261.74 228.523 275.825 217.629 275.824 195.84C275.824 173.587 231.713 155.715 207.531 158.107L207.531 228.523Z" fill="#FF0000"/>
<path d="M2.64368e-06 228.523C2.64368e-06 228.523 126.485 228.524 207.531 228.523C223.927 228.523 226.743 228.523 243.139 228.523C261.74 228.523 275.825 217.629 275.824 195.84C275.824 173.587 231.713 155.715 207.531 158.107L207.531 414" stroke="#FF0000" stroke-width="15"/>
</svg>
