<svg width="217" height="457" viewBox="0 0 217 457" fill="none" xmlns="http://www.w3.org/2000/svg">
<path d="M44.834 192.098C44.834 177.885 69.1566 147.204 108.623 147.204C148.089 147.204 171.954 177.885 171.954 192.098" stroke="#FF0000" stroke-width="15"/>
<path d="M108.157 0L108.157 292.518" stroke="#FF0000" stroke-width="15"/>
<path d="M108.157 322.053L108.157 456.025" stroke="#FF0000" stroke-width="15"/>
<path d="M7.5 232.266C7.5 260.69 23.861 322.053 108.756 322.053C195.109 322.053 209.285 260.69 209.285 232.266" stroke="#FF0000" stroke-width="15"/>
<path d="M107.921 213.302C119.674 213.302 131.21 219.197 140.309 225.81C144.272 228.69 147.599 231.581 150.066 233.899C147.571 236.458 144.16 239.694 140.074 242.915C130.934 250.121 119.48 256.427 107.921 256.427C96.3842 256.427 85.1174 250.141 76.1748 242.958C72.1393 239.717 68.7889 236.459 66.3535 233.896C68.7615 231.575 72.0275 228.667 75.9404 225.77C84.8401 219.179 96.1889 213.302 107.921 213.302Z" stroke="#FF0000" stroke-width="15"/>
</svg>
