<svg width="462" height="965" viewBox="0 0 462 965" fill="none" xmlns="http://www.w3.org/2000/svg">
<path d="M96.5 406.5C96.5 376.425 147.969 311.5 231.485 311.5C315 311.5 365.5 376.425 365.5 406.5" stroke="#FF0000" stroke-width="35"/>
<path d="M230.5 0L230.5 619" stroke="#FF0000" stroke-width="35"/>
<path d="M230.5 681.5L230.5 965" stroke="#FF0000" stroke-width="35"/>
<path d="M17.5 491.5C17.5 551.649 52.1216 681.5 231.769 681.5C414.502 681.5 444.5 551.649 444.5 491.5" stroke="#FF0000" stroke-width="35"/>
<path d="M230 450.5C255.142 450.5 279.738 463.098 299.049 477.134C307.824 483.512 315.128 489.91 320.431 494.933C315.08 500.462 307.605 507.606 298.581 514.721C279.187 530.011 254.756 543.5 230 543.5C205.29 543.5 181.255 530.05 162.276 514.806C153.366 507.649 146.027 500.461 140.81 494.926C145.98 489.899 153.15 483.467 161.809 477.055C180.701 463.065 204.9 450.5 230 450.5ZM329.693 504.356C329.696 504.36 329.698 504.363 329.698 504.363L329.69 504.354V504.353C329.692 504.354 329.692 504.355 329.693 504.356Z" stroke="#FF0000" stroke-width="30"/>
</svg>
