<svg width="251" height="457" viewBox="0 0 251 457" fill="none" xmlns="http://www.w3.org/2000/svg">
<path d="M63.292 192.098C63.292 177.885 87.1485 147.5 126.615 147.5M126.615 147.5C166.081 147.5 190.412 177.885 190.412 192.098M126.615 147.5V0M126.615 147.5V292.518" stroke="#FF0000" stroke-width="15"/>
<path d="M126.615 333V456.025M126.615 333C189.759 333 215.1 274.595 223.77 233H251M126.615 333C64.5368 333 38.7213 274.595 29.5 233H0" stroke="#FF0000" stroke-width="15"/>
<path d="M126.379 213.302C138.132 213.302 149.668 219.197 158.767 225.81C162.73 228.69 166.057 231.581 168.524 233.899C166.029 236.458 162.618 239.694 158.532 242.915C149.392 250.121 137.938 256.427 126.379 256.427C114.842 256.427 103.575 250.141 94.6328 242.958C90.5974 239.717 87.2469 236.459 84.8115 233.896C87.2196 231.575 90.4856 228.667 94.3984 225.77C103.298 219.179 114.647 213.302 126.379 213.302Z" stroke="#FF0000" stroke-width="15"/>
</svg>
