<svg width="1606" height="1049" viewBox="0 0 1606 1049" fill="none" xmlns="http://www.w3.org/2000/svg">
<circle cx="912.549" cy="108" r="93" stroke="#FF0000" stroke-width="30"/>
<path d="M908.046 693.292L907.711 722.711M908.046 693.292C908.046 693.292 960.131 760.25 1007.54 781.292C1044.9 797.87 1355.54 867.795 1426.54 520.461C1486.87 225.328 1602.04 205.294 1602.04 205.294M908.046 693.292C908.046 693.292 832.53 721.489 784.045 739.292C607.518 804.111 568.045 665.292 330.046 899.792C259.126 969.67 125.047 988.792 103.046 936.792C81.0461 884.792 144.011 893.157 160.546 859.292C191.722 795.444 116.046 781.292 116.046 781.292M908.046 693.292C890.046 655.292 855.01 604.793 759.027 604.793C663.044 604.793 517.162 733.794 327.049 553.794C242.053 473.32 216.549 447.794 150.549 402.794C12.4629 308.645 7.04458 357.294 32.0445 486.294M908.046 693.292C919.539 659.907 989.192 652.574 1029.05 595.293C1087.7 533.793 1027.9 428.294 1102.55 423.294C1177.19 418.294 1267.44 520.768 1267.44 520.768M908.046 693.292C875.936 694.822 728.351 631.293 684.708 618.793C641.065 606.293 592.602 591.562 503.549 507.794C394.049 404.794 428.549 373.472 396.549 297.472C364.549 221.472 364.549 203.794 264.549 158.794C164.549 113.794 6.54883 177.653 6.54883 177.653M908.046 693.292L907.784 499.798M907.711 275.907C907.711 275.907 1066.55 275.907 1066.55 114.798M907.711 275.907C907.711 275.907 750.049 275.907 750.049 114.798M907.711 275.907L908.046 370.298M907.711 722.711L950.545 818.292L919.545 1045.79M907.711 722.711L861.045 739.292L880.045 918.792M908.046 436.798L806.049 499.798M908.046 436.798L996.049 499.798M908.046 436.798V370.298M908.046 436.798L996.049 349.298M908.046 436.798L806.049 349.298M908.046 436.798L907.784 499.798M852.049 564.298L907.784 499.798M958.049 564.298L907.784 499.798M1293.55 425.998L1147.55 343.798L996.049 349.298L908.046 370.298M560.049 425.998L665.299 349.298H806.049L908.046 370.298" stroke="#FF0000" stroke-width="35" stroke-miterlimit="10"/>
</svg>
