<svg width="408" height="1028" viewBox="0 0 408 1028" fill="none" xmlns="http://www.w3.org/2000/svg">
<path d="M240.49 11.0757C302.456 99.0757 221.463 178.895 186.482 216.576C151.5 254.256 94.5017 326.576 94.5 454.576C94.4983 582.576 156.491 684.394 202.996 722.076C249.5 759.757 278.516 802.576 288.5 839.576C301.452 887.576 288.5 963.076 288.5 963.076" stroke="#FF0000" stroke-width="35"/>
<path d="M168.266 10.0757C106.3 98.0757 187.292 177.895 222.274 215.576C257.256 253.256 314.254 325.576 314.256 453.576C314.258 581.576 252.265 683.394 205.76 721.076C159.256 758.757 130.24 801.576 120.256 838.576C107.303 886.576 120.256 962.076 120.256 962.076" stroke="#FF0000" stroke-width="35"/>
<path d="M204 544.576L204 1027.58" stroke="#FF0000" stroke-width="30"/>
<path d="M204 394.076C256.817 394.076 294.5 428.887 294.5 466.076C294.5 503.264 256.817 538.076 204 538.076C151.183 538.076 113.5 503.264 113.5 466.076C113.5 428.887 151.183 394.076 204 394.076Z" stroke="#FF0000" stroke-width="30"/>
<path d="M65.5 102.076C65.5 144.497 65.5 389.076 203.5 389.076C341.5 389.076 342.5 144.497 342.5 102.076" stroke="#FF0000" stroke-width="35"/>
<path d="M17.5 807.076C17.5 769.828 17.5 555.076 203.327 555.076C389.153 555.076 390.5 769.828 390.5 807.076" stroke="#FF0000" stroke-width="35"/>
</svg>
