<svg width="182" height="460" viewBox="0 0 182 460" fill="none" xmlns="http://www.w3.org/2000/svg">
<path d="M107.216 4.76562C134.926 44.117 98.7084 79.8101 83.0655 96.66C67.4225 113.51 41.9344 145.849 41.9336 203.087C41.9328 260.326 69.6545 305.856 90.4501 322.707C111.246 339.557 124.221 358.704 128.685 375.25C134.477 396.714 128.685 430.476 128.685 430.476" stroke="#FF0000" stroke-width="15"/>
<path d="M74.9193 4.31836C47.2095 43.6697 83.4273 79.3629 99.0703 96.2127C114.713 113.063 140.201 145.402 140.202 202.64C140.203 259.879 112.481 305.409 91.6857 322.259C70.8901 339.11 57.915 358.257 53.4503 374.802C47.6583 396.267 53.4503 430.028 53.4503 430.028" stroke="#FF0000" stroke-width="15"/>
<path d="M90.8984 243.333L90.8984 459.318" stroke="#FF0000" stroke-width="15"/>
<path d="M90.8975 176.826C114.228 176.826 130.574 192.174 130.574 208.23C130.574 224.286 114.228 239.635 90.8975 239.635C67.5669 239.635 51.2208 224.286 51.2207 208.23C51.2207 192.174 67.5668 176.826 90.8975 176.826Z" stroke="#FF0000" stroke-width="15"/>
<path d="M28.9648 45.458C28.9648 64.4276 28.9648 173.797 90.6749 173.797C152.385 173.797 152.832 64.4276 152.832 45.458" stroke="#FF0000" stroke-width="15"/>
<path d="M7.5 360.717C7.5 344.061 7.5 248.029 90.597 248.029C173.694 248.029 174.296 344.061 174.296 360.717" stroke="#FF0000" stroke-width="15"/>
</svg>
