<svg width="642" height="839" viewBox="0 0 642 839" fill="none" xmlns="http://www.w3.org/2000/svg">
<mask id="path-1-inside-1_770_27147" fill="white">
<path fill-rule="evenodd" clip-rule="evenodd" d="M320.64 0L641.279 839H320.64H0L320.64 0Z"/>
</mask>
<path d="M641.279 839L652.489 834.716L658.712 851H641.279V839ZM320.64 0L309.43 -4.28385L320.64 -33.6146L331.849 -4.28385L320.64 0ZM0 839V851H-17.4325L-11.2093 834.716L0 839ZM630.07 843.284L309.43 4.28385L331.849 -4.28385L652.489 834.716L630.07 843.284ZM320.64 827H641.279V851H320.64V827ZM0 827H320.64V851H0V827ZM331.849 4.28385L11.2093 843.284L-11.2093 834.716L309.43 -4.28385L331.849 4.28385Z" fill="#FF0000" mask="url(#path-1-inside-1_770_27147)"/>
<mask id="path-3-inside-2_770_27147" fill="white">
<path fill-rule="evenodd" clip-rule="evenodd" d="M199.47 405.939H217.326L320.639 135.605L320.64 135.604V135.605L423.786 405.502H435.685H448.371H468.93L464.118 423.874L461.494 439.622L457.994 454.495L450.868 476.366L589.455 839L320.64 839H51.824L190.746 475.491L185.91 463.243L182.41 452.745L179.348 442.246L177.599 434.372L177.161 429.561V426.936V413.376L179.348 405.939H199.47Z"/>
</mask>
<path d="M217.326 405.939L228.536 410.223L225.587 417.939H217.326V405.939ZM320.639 135.605L309.43 131.321L310.663 128.095L313.422 126.018L320.639 135.605ZM320.64 135.604L313.422 126.018L332.64 111.549V135.604H320.64ZM320.64 135.605L309.43 139.889L308.64 137.82V135.605H320.64ZM423.786 405.502V417.502H415.525L412.577 409.786L423.786 405.502ZM468.93 405.502V393.502H484.478L480.538 408.542L468.93 405.502ZM464.118 423.874L452.281 421.901L452.371 421.362L452.51 420.834L464.118 423.874ZM461.494 439.622L473.33 441.595L473.265 441.985L473.175 442.37L461.494 439.622ZM457.994 454.495L469.675 457.243L469.56 457.733L469.404 458.212L457.994 454.495ZM450.868 476.366L439.659 480.65L438.143 476.685L439.458 472.649L450.868 476.366ZM589.455 839L600.665 834.716L606.888 851H589.455L589.455 839ZM320.64 839V827V827V839ZM51.824 839V851H34.3915L40.6147 834.716L51.824 839ZM190.746 475.491L201.907 471.085L203.619 475.421L201.955 479.775L190.746 475.491ZM185.91 463.243L174.748 467.65L174.629 467.347L174.526 467.038L185.91 463.243ZM182.41 452.745L171.026 456.539L170.954 456.323L170.89 456.105L182.41 452.745ZM179.348 442.246L167.828 445.606L167.719 445.231L167.634 444.849L179.348 442.246ZM177.599 434.372L165.884 436.976L165.717 436.225L165.648 435.459L177.599 434.372ZM177.161 429.561L165.21 430.647L165.161 430.105V429.561H177.161ZM177.161 413.376H165.161V411.648L165.649 409.99L177.161 413.376ZM179.348 405.939L167.836 402.553L170.369 393.939H179.348V405.939ZM217.326 417.939H199.47V393.939H217.326V417.939ZM331.849 139.889L228.536 410.223L206.117 401.655L309.43 131.321L331.849 139.889ZM327.857 145.191L327.857 145.191L313.422 126.018L313.422 126.018L327.857 145.191ZM308.64 135.605V135.604H332.64V135.605H308.64ZM412.577 409.786L309.43 139.889L331.849 131.321L434.995 401.218L412.577 409.786ZM435.685 417.502H423.786V393.502H435.685V417.502ZM448.371 417.502H435.685V393.502H448.371V417.502ZM468.93 417.502H448.371V393.502H468.93V417.502ZM452.51 420.834L457.322 402.462L480.538 408.542L475.727 426.915L452.51 420.834ZM449.657 437.649L452.281 421.901L475.955 425.847L473.33 441.595L449.657 437.649ZM446.313 451.746L449.813 436.873L473.175 442.37L469.675 457.243L446.313 451.746ZM439.458 472.649L446.584 450.777L469.404 458.212L462.278 480.084L439.458 472.649ZM578.246 843.284L439.659 480.65L462.077 472.083L600.665 834.716L578.246 843.284ZM320.64 827L589.455 827L589.455 851L320.64 851V827ZM51.824 827H320.64V851H51.824V827ZM201.955 479.775L63.0333 843.284L40.6147 834.716L179.536 471.208L201.955 479.775ZM197.071 458.836L201.907 471.085L179.584 479.898L174.748 467.65L197.071 458.836ZM193.795 448.95L197.294 459.448L174.526 467.038L171.026 456.539L193.795 448.95ZM190.868 438.886L193.93 449.385L170.89 456.105L167.828 445.606L190.868 438.886ZM189.313 431.769L191.063 439.643L167.634 444.849L165.884 436.976L189.313 431.769ZM189.112 428.474L189.549 433.286L165.648 435.459L165.21 430.647L189.112 428.474ZM189.161 426.936V429.561H165.161V426.936H189.161ZM189.161 413.376V426.936H165.161V413.376H189.161ZM190.861 409.325L188.674 416.762L165.649 409.99L167.836 402.553L190.861 409.325ZM199.47 417.939H179.348V393.939H199.47V417.939Z" fill="#FF0000" mask="url(#path-3-inside-2_770_27147)"/>
<mask id="path-5-inside-3_770_27147" fill="white">
<path fill-rule="evenodd" clip-rule="evenodd" d="M409.001 511.799L512.674 839H319.765L123.794 839L231.516 513.111L259.399 529.296L270.335 534.108L280.396 537.607L290.457 540.232L303.58 542.857L311.891 543.731H314.523L314.516 543.294L322.389 543.732H332.45L349.948 541.107L367.008 535.42L380.131 529.734L395.441 521.86L409.001 511.799Z"/>
</mask>
<path d="M512.674 839L524.113 835.376L529.064 851H512.674V839ZM409.001 511.799L401.851 502.162L415.36 492.139L420.441 508.174L409.001 511.799ZM319.765 839V851V851V839ZM123.794 839V851H107.189L112.4 835.234L123.794 839ZM231.516 513.111L220.122 509.345L224.76 495.314L237.54 502.733L231.516 513.111ZM259.399 529.296L254.566 540.28L253.953 540.01L253.375 539.674L259.399 529.296ZM270.335 534.108L266.393 545.442L265.94 545.285L265.502 545.092L270.335 534.108ZM280.396 537.607L277.367 549.219L276.905 549.098L276.454 548.941L280.396 537.607ZM290.457 540.232L288.103 551.999L287.763 551.931L287.428 551.843L290.457 540.232ZM303.58 542.857L302.324 554.791L301.771 554.733L301.226 554.624L303.58 542.857ZM311.891 543.731V555.731H311.261L310.635 555.666L311.891 543.731ZM314.523 543.731L326.521 543.518L326.738 555.731H314.523V543.731ZM314.516 543.294L302.517 543.507L302.288 530.596L315.181 531.313L314.516 543.294ZM322.389 543.732V555.732H322.056L321.724 555.713L322.389 543.732ZM332.45 543.732L334.23 555.599L333.345 555.732H332.45V543.732ZM349.948 541.107L353.743 552.491L352.756 552.82L351.728 552.974L349.948 541.107ZM367.008 535.42L371.779 546.431L371.299 546.639L370.802 546.805L367.008 535.42ZM380.131 529.734L385.619 540.405L385.266 540.587L384.902 540.744L380.131 529.734ZM395.441 521.86L402.591 531.497L401.802 532.082L400.929 532.531L395.441 521.86ZM501.234 842.625L397.562 515.423L420.441 508.174L524.113 835.376L501.234 842.625ZM319.765 827H512.674V851H319.765V827ZM123.794 827L319.765 827V851L123.794 851V827ZM242.91 516.877L135.188 842.766L112.4 835.234L220.122 509.345L242.91 516.877ZM253.375 539.674L225.492 523.489L237.54 502.733L265.423 518.918L253.375 539.674ZM265.502 545.092L254.566 540.28L264.232 518.312L275.168 523.124L265.502 545.092ZM276.454 548.941L266.393 545.442L274.277 522.774L284.338 526.273L276.454 548.941ZM287.428 551.843L277.367 549.219L283.425 525.996L293.486 528.621L287.428 551.843ZM301.226 554.624L288.103 551.999L292.81 528.465L305.933 531.09L301.226 554.624ZM310.635 555.666L302.324 554.791L304.836 530.923L313.147 531.797L310.635 555.666ZM314.523 555.731H311.891V531.731H314.523V555.731ZM326.514 543.081L326.521 543.518L302.525 543.945L302.517 543.507L326.514 543.081ZM321.724 555.713L313.85 555.276L315.181 531.313L323.055 531.75L321.724 555.713ZM332.45 555.732H322.389V531.732H332.45V555.732ZM351.728 552.974L334.23 555.599L330.67 531.864L348.168 529.24L351.728 552.974ZM370.802 546.805L353.743 552.491L346.153 529.723L363.213 524.036L370.802 546.805ZM384.902 540.744L371.779 546.431L362.236 524.41L375.359 518.723L384.902 540.744ZM400.929 532.531L385.619 540.405L374.643 519.062L389.953 511.188L400.929 532.531ZM416.152 521.436L402.591 531.497L388.291 512.223L401.851 502.162L416.152 521.436Z" fill="#FF0000" mask="url(#path-5-inside-3_770_27147)"/>
<path d="M215.605 833H423.018L361.561 545.462L357.755 546.475L357.346 546.583L356.925 546.633L338.592 548.823L338.441 548.842L338.287 548.853L325.394 549.729L325.045 549.752L324.695 549.735L306.737 548.858L306.411 548.843L306.089 548.792L300.6 547.921L291.446 546.615L291.248 546.587L291.053 546.546L276.214 543.408L215.605 833Z" stroke="#FF0000" stroke-width="12"/>
<mask id="path-8-inside-4_770_27147" fill="white">
<path fill-rule="evenodd" clip-rule="evenodd" d="M469.805 408.564C469.805 407.687 469.797 406.812 469.781 405.939H171.498C171.482 406.812 171.474 407.687 171.474 408.564C171.474 489.255 238.258 554.667 320.64 554.667C403.021 554.667 469.805 489.255 469.805 408.564ZM320.64 543.294C246.955 543.294 187.222 487.234 187.222 418.081C218.555 418.081 454.057 418.081 454.041 418.081H454.057C454.057 487.234 394.324 543.294 320.64 543.294Z"/>
</mask>
<path fill-rule="evenodd" clip-rule="evenodd" d="M469.805 408.564C469.805 407.687 469.797 406.812 469.781 405.939H171.498C171.482 406.812 171.474 407.687 171.474 408.564C171.474 489.255 238.258 554.667 320.64 554.667C403.021 554.667 469.805 489.255 469.805 408.564ZM320.64 543.294C246.955 543.294 187.222 487.234 187.222 418.081C218.555 418.081 454.057 418.081 454.041 418.081H454.057C454.057 487.234 394.324 543.294 320.64 543.294Z" fill="#FF0000"/>
<path d="M469.781 405.939V404.939H470.763L470.781 405.921L469.781 405.939ZM171.498 405.939L170.498 405.921L170.516 404.939H171.498V405.939ZM187.222 418.081H186.222V417.081L187.222 417.081V418.081ZM454.057 418.081V417.081H455.057V418.081H454.057ZM470.781 405.921C470.797 406.8 470.805 407.681 470.805 408.564H468.805C468.805 407.693 468.797 406.824 468.781 405.957L470.781 405.921ZM171.498 404.939H469.781V406.939H171.498V404.939ZM170.474 408.564C170.474 407.681 170.482 406.8 170.498 405.921L172.498 405.957C172.482 406.824 172.474 407.693 172.474 408.564H170.474ZM320.64 555.667C237.725 555.667 170.474 489.826 170.474 408.564H172.474C172.474 488.683 238.79 553.667 320.64 553.667V555.667ZM470.805 408.564C470.805 489.826 403.554 555.667 320.64 555.667V553.667C402.489 553.667 468.805 488.683 468.805 408.564H470.805ZM188.222 418.081C188.222 486.623 247.447 542.294 320.64 542.294V544.294C246.464 544.294 186.222 487.845 186.222 418.081H188.222ZM454.041 417.081C455.041 418.081 454.041 419.081 454.039 419.081C454.037 419.081 454.034 419.081 454.031 419.081C454.024 419.081 454.013 419.081 453.999 419.081C453.97 419.081 453.928 419.081 453.871 419.081C453.758 419.081 453.589 419.081 453.366 419.081C452.92 419.081 452.258 419.081 451.392 419.081C449.66 419.081 447.116 419.081 443.866 419.081C437.367 419.081 428.047 419.081 416.764 419.081C394.198 419.081 363.783 419.081 332.387 419.081C269.597 419.081 202.888 419.081 187.222 419.081V417.081C202.888 417.081 269.597 417.081 332.387 417.081C363.783 417.081 394.198 417.081 416.764 417.081C428.047 417.081 437.367 417.081 443.866 417.081C447.116 417.081 449.66 417.081 451.392 417.081C452.258 417.081 452.92 417.081 453.366 417.081C453.589 417.081 453.758 417.081 453.871 417.081C453.928 417.081 453.97 417.081 453.999 417.081C454.013 417.081 454.024 417.081 454.031 417.081C454.034 417.081 454.037 417.081 454.039 417.081C454.041 417.081 453.041 418.081 454.041 419.081V417.081ZM454.057 419.081H454.041V417.081H454.057V419.081ZM320.64 542.294C393.833 542.294 453.057 486.623 453.057 418.081H455.057C455.057 487.845 394.816 544.294 320.64 544.294V542.294Z" fill="#FF0000" mask="url(#path-8-inside-4_770_27147)"/>
<path d="M293.759 413.657H348.396L321.077 488.469L293.759 413.657Z" fill="#FF0000" stroke="#FF0000"/>
<path d="M320.202 546.356L320.203 832.001" stroke="#FF0000" stroke-width="12"/>
<path d="M321.079 24.9336L321.11 473.304" stroke="#FF0000" stroke-width="12"/>
</svg>
