<svg width="260" height="472" viewBox="0 0 260 472" fill="none" xmlns="http://www.w3.org/2000/svg">
<path d="M20 154L20 413" stroke="#FF0000" stroke-width="15"/>
<path d="M130 52L130 439" stroke="#FF0000" stroke-width="15"/>
<path d="M240 154L240 413" stroke="#FF0000" stroke-width="15"/>
<path d="M129.5 215.5C156.732 215.5 182.8 230.564 202.658 246.587C212.469 254.503 220.496 262.436 226.068 268.391C227.826 270.269 229.333 271.948 230.572 273.359C229.342 274.683 227.858 276.247 226.133 277.992C220.518 283.671 212.432 291.24 202.56 298.794C182.597 314.069 156.354 328.5 129 328.5C101.682 328.5 76.0822 314.101 56.7793 298.863C47.2293 291.325 39.4607 283.771 34.084 278.104C32.4006 276.329 30.9584 274.742 29.7715 273.406C30.9957 271.972 32.4981 270.253 34.2607 268.322C39.6907 262.374 47.5276 254.451 57.1455 246.544C76.6088 230.544 102.291 215.5 129.5 215.5Z" stroke="#FF0000" stroke-width="15"/>
<circle cx="129.5" cy="17.5" r="10" fill="#FF0000" stroke="#FF0000" stroke-width="15"/>
<circle cx="240" cy="452" r="12.5" fill="#FF0000" stroke="#FF0000" stroke-width="15"/>
<circle cx="20" cy="452" r="12.5" fill="#FF0000" stroke="#FF0000" stroke-width="15"/>
<path d="M60 91C60 106.639 87.6371 156 130.792 156C173.947 156 199 106.639 199 91" stroke="#FF0000" stroke-width="15"/>
</svg>
