<svg width="1145" height="1941" viewBox="0 0 1145 1941" fill="none" xmlns="http://www.w3.org/2000/svg">
<mask id="path-1-inside-1_787_90976" fill="white">
<path fill-rule="evenodd" clip-rule="evenodd" d="M573.5 881L207 1840H573.5H940L573.5 881Z"/>
</mask>
<path d="M207 1840L195.791 1835.72L189.568 1852H207V1840ZM573.5 881L584.709 876.716L573.5 847.385L562.291 876.716L573.5 881ZM940 1840V1852H957.432L951.209 1835.72L940 1840ZM218.209 1844.28L584.709 885.284L562.291 876.716L195.791 1835.72L218.209 1844.28ZM573.5 1828H207V1852H573.5V1828ZM940 1828H573.5V1852H940V1828ZM562.291 885.284L928.791 1844.28L951.209 1835.72L584.709 876.716L562.291 885.284Z" fill="#FF0000" mask="url(#path-1-inside-1_787_90976)"/>
<mask id="path-3-inside-2_787_90976" fill="white">
<path fill-rule="evenodd" clip-rule="evenodd" d="M424.645 1425.5L266.236 1840H573.5H880.764L721.972 1424.5L727.5 1410.5L731.5 1398.5L735 1386.5L737 1377.5L737.5 1372V1369V1353.5L735 1345H712H691.59L573.5 1036L455.601 1344.5H442H427.5H404L409.5 1365.5L412.5 1383.5L416.5 1400.5L424.645 1425.5Z"/>
</mask>
<path d="M266.236 1840L255.027 1835.72L248.804 1852H266.236V1840ZM424.645 1425.5L435.855 1429.78L437.37 1425.82L436.055 1421.78L424.645 1425.5ZM880.764 1840V1852H898.196L891.973 1835.72L880.764 1840ZM721.972 1424.5L710.811 1420.09L709.099 1424.43L710.763 1428.78L721.972 1424.5ZM727.5 1410.5L738.661 1414.91L738.781 1414.6L738.884 1414.29L727.5 1410.5ZM731.5 1398.5L742.884 1402.29L742.956 1402.08L743.02 1401.86L731.5 1398.5ZM735 1386.5L746.52 1389.86L746.629 1389.48L746.714 1389.1L735 1386.5ZM737 1377.5L748.714 1380.1L748.881 1379.35L748.951 1378.59L737 1377.5ZM737.5 1372L749.451 1373.09L749.5 1372.54V1372H737.5ZM737.5 1353.5H749.5V1351.77L749.012 1350.11L737.5 1353.5ZM735 1345L746.512 1341.61L743.979 1333H735V1345ZM691.59 1345L680.381 1349.28L683.33 1357H691.59V1345ZM573.5 1036L584.709 1031.72L573.5 1002.39L562.291 1031.72L573.5 1036ZM455.601 1344.5V1356.5H463.861L466.81 1348.78L455.601 1344.5ZM404 1344.5V1332.5H388.452L392.392 1347.54L404 1344.5ZM409.5 1365.5L421.337 1363.53L421.247 1362.99L421.108 1362.46L409.5 1365.5ZM412.5 1383.5L400.663 1385.47L400.728 1385.86L400.819 1386.25L412.5 1383.5ZM416.5 1400.5L404.819 1403.25L404.934 1403.74L405.09 1404.22L416.5 1400.5ZM277.446 1844.28L435.855 1429.78L413.436 1421.22L255.027 1835.72L277.446 1844.28ZM573.5 1828H266.236V1852H573.5V1828ZM880.764 1828H573.5V1852H880.764V1828ZM710.763 1428.78L869.554 1844.28L891.973 1835.72L733.182 1420.22L710.763 1428.78ZM716.338 1406.09L710.811 1420.09L733.134 1428.91L738.661 1414.91L716.338 1406.09ZM720.116 1394.71L716.116 1406.71L738.884 1414.29L742.884 1402.29L720.116 1394.71ZM723.48 1383.14L719.98 1395.14L743.02 1401.86L746.52 1389.86L723.48 1383.14ZM725.286 1374.9L723.286 1383.9L746.714 1389.1L748.714 1380.1L725.286 1374.9ZM725.549 1370.91L725.049 1376.41L748.951 1378.59L749.451 1373.09L725.549 1370.91ZM725.5 1369V1372H749.5V1369H725.5ZM725.5 1353.5V1369H749.5V1353.5H725.5ZM723.487 1348.39L725.987 1356.89L749.012 1350.11L746.512 1341.61L723.487 1348.39ZM712 1357H735V1333H712V1357ZM691.59 1357H712V1333H691.59V1357ZM562.291 1040.28L680.381 1349.28L702.799 1340.72L584.709 1031.72L562.291 1040.28ZM466.81 1348.78L584.709 1040.28L562.291 1031.72L444.392 1340.22L466.81 1348.78ZM442 1356.5H455.601V1332.5H442V1356.5ZM427.5 1356.5H442V1332.5H427.5V1356.5ZM404 1356.5H427.5V1332.5H404V1356.5ZM421.108 1362.46L415.608 1341.46L392.392 1347.54L397.892 1368.54L421.108 1362.46ZM424.337 1381.53L421.337 1363.53L397.663 1367.47L400.663 1385.47L424.337 1381.53ZM428.181 1397.75L424.181 1380.75L400.819 1386.25L404.819 1403.25L428.181 1397.75ZM436.055 1421.78L427.91 1396.78L405.09 1404.22L413.236 1429.22L436.055 1421.78Z" fill="#FF0000" mask="url(#path-3-inside-2_787_90976)"/>
<mask id="path-5-inside-3_787_90976" fill="white">
<path fill-rule="evenodd" clip-rule="evenodd" d="M472.5 1466L354 1840H572.502H574.5H798.5L675.371 1467.5L643.5 1486L631 1491.5L619.5 1495.5L608 1498.5L593 1501.5L583.5 1502.5H580.491L580.5 1502L571.5 1502.5H560L540 1499.5L520.5 1493L505.5 1486.5L488 1477.5L472.5 1466Z"/>
</mask>
<path d="M354 1840L342.56 1836.38L337.61 1852H354V1840ZM472.5 1466L479.65 1456.36L466.141 1446.34L461.06 1462.38L472.5 1466ZM798.5 1840V1852H815.105L809.894 1836.23L798.5 1840ZM675.371 1467.5L686.764 1463.73L682.127 1449.7L669.346 1457.12L675.371 1467.5ZM643.5 1486L648.333 1496.98L648.945 1496.71L649.524 1496.38L643.5 1486ZM631 1491.5L634.942 1502.83L635.395 1502.68L635.833 1502.48L631 1491.5ZM619.5 1495.5L622.529 1507.11L622.991 1506.99L623.442 1506.83L619.5 1495.5ZM608 1498.5L610.353 1510.27L610.693 1510.2L611.029 1510.11L608 1498.5ZM593 1501.5L594.256 1513.43L594.809 1513.38L595.353 1513.27L593 1501.5ZM583.5 1502.5V1514.5H584.13L584.756 1514.43L583.5 1502.5ZM580.491 1502.5L568.493 1502.29L568.276 1514.5H580.491V1502.5ZM580.5 1502L592.498 1502.21L592.727 1489.3L579.834 1490.02L580.5 1502ZM571.5 1502.5V1514.5H571.833L572.166 1514.48L571.5 1502.5ZM560 1502.5L558.22 1514.37L559.105 1514.5H560V1502.5ZM540 1499.5L536.205 1510.88L537.192 1511.21L538.22 1511.37L540 1499.5ZM520.5 1493L515.729 1504.01L516.209 1504.22L516.705 1504.38L520.5 1493ZM505.5 1486.5L500.012 1497.17L500.365 1497.35L500.729 1497.51L505.5 1486.5ZM488 1477.5L480.85 1487.14L481.639 1487.72L482.512 1488.17L488 1477.5ZM365.44 1843.62L483.94 1469.62L461.06 1462.38L342.56 1836.38L365.44 1843.62ZM572.502 1828H354V1852H572.502V1828ZM574.5 1828H572.502V1852H574.5V1828ZM798.5 1828H574.5V1852H798.5V1828ZM663.977 1471.27L787.106 1843.77L809.894 1836.23L686.764 1463.73L663.977 1471.27ZM649.524 1496.38L681.395 1477.88L669.346 1457.12L637.476 1475.62L649.524 1496.38ZM635.833 1502.48L648.333 1496.98L638.667 1475.02L626.167 1480.52L635.833 1502.48ZM623.442 1506.83L634.942 1502.83L627.058 1480.17L615.558 1484.17L623.442 1506.83ZM611.029 1510.11L622.529 1507.11L616.471 1483.89L604.971 1486.89L611.029 1510.11ZM595.353 1513.27L610.353 1510.27L605.647 1486.73L590.647 1489.73L595.353 1513.27ZM584.756 1514.43L594.256 1513.43L591.744 1489.57L582.244 1490.57L584.756 1514.43ZM580.491 1514.5H583.5V1490.5H580.491V1514.5ZM568.502 1501.79L568.493 1502.29L592.489 1502.71L592.498 1502.21L568.502 1501.79ZM572.166 1514.48L581.166 1513.98L579.834 1490.02L570.834 1490.52L572.166 1514.48ZM560 1514.5H571.5V1490.5H560V1514.5ZM538.22 1511.37L558.22 1514.37L561.78 1490.63L541.78 1487.63L538.22 1511.37ZM516.705 1504.38L536.205 1510.88L543.795 1488.12L524.295 1481.62L516.705 1504.38ZM500.729 1497.51L515.729 1504.01L525.271 1481.99L510.271 1475.49L500.729 1497.51ZM482.512 1488.17L500.012 1497.17L510.988 1475.83L493.488 1466.83L482.512 1488.17ZM465.35 1475.64L480.85 1487.14L495.15 1467.86L479.65 1456.36L465.35 1475.64Z" fill="#FF0000" mask="url(#path-5-inside-3_787_90976)"/>
<path d="M694.614 1834H455.418L526.075 1503.42L531.297 1504.81L531.706 1504.92L532.126 1504.96L553.081 1507.47L553.233 1507.49L553.386 1507.5L568.123 1508.5L568.473 1508.52L568.822 1508.5L589.35 1507.5L589.675 1507.49L589.997 1507.44L596.275 1506.44L606.748 1504.95L606.945 1504.92L607.141 1504.88L624.943 1501.11L694.614 1834Z" stroke="#FF0000" stroke-width="12"/>
<mask id="path-8-inside-4_787_90976" fill="white">
<path fill-rule="evenodd" clip-rule="evenodd" d="M403 1348C403 1347 403.009 1346 403.027 1345H743.973C743.991 1346 744 1347 744 1348C744 1440.23 667.665 1515 573.5 1515C479.335 1515 403 1440.23 403 1348ZM573.5 1502C657.723 1502 726 1437.92 726 1358.88C690.186 1358.88 421 1358.88 421.018 1358.88H421C421 1437.92 489.277 1502 573.5 1502Z"/>
</mask>
<path fill-rule="evenodd" clip-rule="evenodd" d="M403 1348C403 1347 403.009 1346 403.027 1345H743.973C743.991 1346 744 1347 744 1348C744 1440.23 667.665 1515 573.5 1515C479.335 1515 403 1440.23 403 1348ZM573.5 1502C657.723 1502 726 1437.92 726 1358.88C690.186 1358.88 421 1358.88 421.018 1358.88H421C421 1437.92 489.277 1502 573.5 1502Z" fill="#FF0000"/>
<path d="M403.027 1345V1344H402.045L402.027 1344.98L403.027 1345ZM743.973 1345L744.973 1344.98L744.955 1344H743.973V1345ZM726 1358.88H727V1357.88L726 1357.88V1358.88ZM421 1358.88V1357.88H420V1358.88H421ZM402.027 1344.98C402.009 1345.99 402 1346.99 402 1348H404C404 1347 404.009 1346.01 404.027 1345.02L402.027 1344.98ZM743.973 1344H403.027V1346H743.973V1344ZM745 1348C745 1346.99 744.991 1345.99 744.973 1344.98L742.973 1345.02C742.991 1346.01 743 1347 743 1348H745ZM573.5 1516C668.197 1516 745 1440.8 745 1348H743C743 1439.66 667.132 1514 573.5 1514V1516ZM402 1348C402 1440.8 478.803 1516 573.5 1516V1514C479.868 1514 404 1439.66 404 1348H402ZM725 1358.88C725 1437.31 657.232 1501 573.5 1501V1503C658.215 1503 727 1438.53 727 1358.88H725ZM421.018 1357.88C420.018 1358.88 421.019 1359.88 421.021 1359.88C421.023 1359.88 421.026 1359.88 421.03 1359.88C421.039 1359.88 421.051 1359.88 421.067 1359.88C421.099 1359.88 421.148 1359.88 421.213 1359.88C421.342 1359.88 421.535 1359.88 421.79 1359.88C422.3 1359.88 423.057 1359.88 424.047 1359.88C426.026 1359.88 428.934 1359.88 432.649 1359.88C440.078 1359.88 450.731 1359.88 463.628 1359.88C489.421 1359.88 524.187 1359.88 560.072 1359.88C631.843 1359.88 708.093 1359.88 726 1359.88V1357.88C708.093 1357.88 631.843 1357.88 560.072 1357.88C524.187 1357.88 489.421 1357.88 463.628 1357.88C450.731 1357.88 440.078 1357.88 432.649 1357.88C428.934 1357.88 426.026 1357.88 424.047 1357.88C423.057 1357.88 422.3 1357.88 421.79 1357.88C421.535 1357.88 421.342 1357.88 421.213 1357.88C421.148 1357.88 421.099 1357.88 421.067 1357.88C421.051 1357.88 421.039 1357.88 421.03 1357.88C421.026 1357.88 421.023 1357.88 421.021 1357.88C421.019 1357.88 422.018 1358.88 421.018 1359.88V1357.88ZM421 1359.88H421.018V1357.88H421V1359.88ZM573.5 1501C489.768 1501 422 1437.31 422 1358.88H420C420 1438.53 488.785 1503 573.5 1503V1501Z" fill="#FF0000" mask="url(#path-8-inside-4_787_90976)"/>
<path d="M604.328 1353.75H541.672L573 1439.54L604.328 1353.75Z" fill="#FF0000" stroke="#FF0000"/>
<path d="M574 1505.5L573.999 1832" stroke="#FF0000" stroke-width="12"/>
<path d="M572.998 909.5L572.962 1422" stroke="#FF0000" stroke-width="12"/>
<path d="M622.171 486.268L622.171 807.037" stroke="#FF0000" stroke-width="15"/>
<line x1="573.182" y1="587.283" x2="573.182" y2="854" stroke="#FF0000" stroke-width="15"/>
<path d="M524.479 486.268L524.479 807.037" stroke="#FF0000" stroke-width="15"/>
<path d="M394 475.634C394 513.294 470.205 594.594 573.657 594.594C678.886 594.594 751.779 513.294 751.779 475.634" stroke="#FF0000" stroke-width="15"/>
<circle cx="573.879" cy="545.858" r="16.2032" fill="#FF0000" stroke="#FF0000" stroke-width="15"/>
<circle cx="622.393" cy="444.621" r="7.5" fill="#FF0000"/>
<circle cx="622.393" cy="444.621" r="7.5" fill="#FF0000"/>
<circle cx="622.393" cy="444.621" r="7.5" stroke="#FF0000" stroke-width="14.2414"/>
<circle cx="524.479" cy="444.621" r="7.5" fill="#FF0000"/>
<circle cx="524.479" cy="444.621" r="7.5" fill="#FF0000"/>
<circle cx="524.479" cy="444.621" r="7.5" stroke="#FF0000" stroke-width="14.2414"/>
<path d="M1145 1940.47H0L347.01 977.738L170.705 483.506L408.784 0H736.213L974.292 483.506L797.989 977.738L1145 1940.47ZM33.5609 1916.89H1111.44L772.941 977.779L948.735 484.975L721.541 23.5795H423.456L196.263 484.975L372.057 977.779L370.624 981.755L33.5609 1916.89Z" fill="#FF0000"/>
<path d="M572.501 170.179C534.301 170.179 497.777 155.658 466.879 128.188C437.163 101.768 414.784 65.3574 402.167 22.8903L424.769 16.1753C447.951 94.187 507.319 146.602 572.501 146.602C637.683 146.602 697.052 94.1885 720.232 16.1753L742.834 22.8903C730.215 65.3574 707.838 101.768 678.122 128.188C647.224 155.658 610.7 170.179 572.501 170.179Z" fill="#FF0000"/>
<path d="M431.262 300.895C445.731 300.895 457.46 289.166 457.46 274.697C457.46 260.228 445.731 248.499 431.262 248.499C416.793 248.499 405.064 260.228 405.064 274.697C405.064 289.166 416.793 300.895 431.262 300.895Z" fill="#FF0000"/>
<path d="M572.5 300.895C586.969 300.895 598.698 289.166 598.698 274.697C598.698 260.228 586.969 248.499 572.5 248.499C558.031 248.499 546.302 260.228 546.302 274.697C546.302 289.166 558.031 300.895 572.5 300.895Z" fill="#FF0000"/>
<path d="M572.5 108.873C586.969 108.873 598.698 97.1433 598.698 82.6744C598.698 68.2055 586.969 56.4761 572.5 56.4761C558.031 56.4761 546.302 68.2055 546.302 82.6744C546.302 97.1433 558.031 108.873 572.5 108.873Z" fill="#FF0000"/>
<path d="M713.74 300.895C728.209 300.895 739.939 289.166 739.939 274.697C739.939 260.228 728.209 248.499 713.74 248.499C699.271 248.499 687.542 260.228 687.542 274.697C687.542 289.166 699.271 300.895 713.74 300.895Z" fill="#FF0000"/>
</svg>
